<svg width="297" height="382" viewBox="0 0 297 382" fill="none" xmlns="http://www.w3.org/2000/svg">
<path d="M0.5 381L22 284.5H75L54 381H0.5Z" fill="#FFEEE7"/>
<path d="M292.5 381L271 284.5H218L239 381H292.5Z" fill="#FFEEE7"/>
<path d="M150.032 172.905C97.7345 172.905 19.8333 151.264 10.149 232.375C7.14584 254.605 -7.86997 291.444 33.1728 303.353C48.7729 307.88 60.8784 304.115 68.7839 299.361C71.1987 297.909 75.7426 300.677 75.0124 303.399L55.0743 377.721C54.6305 379.375 55.877 381 57.5897 381H235.427C236.996 381 238.209 379.622 238.01 378.065L227.267 294.136C226.96 291.738 230.131 289.844 232.334 290.839C241.686 295.064 258.114 297.611 276.425 291.444C302.288 282.734 297.674 251.51 294.504 237.873C294.463 237.696 294.442 237.513 294.437 237.332C292.343 149.181 215.817 172.905 150.032 172.905Z" fill="url(#paint0_linear_584_1280)"/>
<path d="M55.7815 377.565C63.0912 353.916 79 306.5 74 276.5C69.3222 248.433 80 230 83.1604 227.221" stroke="#404040" stroke-width="8" stroke-linecap="round" stroke-linejoin="round"/>
<path d="M236.955 377.565C229.645 353.916 226 309 233 280C239.676 252.341 233 235.5 222.475 227.221" stroke="#404040" stroke-width="8" stroke-linecap="round" stroke-linejoin="round"/>
<path d="M114.188 60.0812C124.311 11.6604 206.448 20.0608 208.286 65.9769C209.346 92.4561 207.641 136.924 177.327 150.469L176.424 161.423C175.727 166.317 173.316 178.203 155.312 178.203C137.308 178.203 135.415 167.016 136.719 161.423L137.338 152.404C107.835 141.439 107.635 87.67 114.188 60.0812Z" fill="#FFEEE7"/>
<circle cx="191" cy="104" r="13" fill="#FFDACB"/>
<circle cx="191" cy="104" r="13" fill="#FFDACB"/>
<path d="M166.507 87.5C167.5 93 169.234 94.081 176 104L166.507 111.267" stroke="#404040" stroke-width="8" stroke-linecap="round" stroke-linejoin="round"/>
<path d="M129.569 84.592C130.438 81.4639 134.067 75.4461 141.63 76.3992C149.193 77.3524 149.927 84.1907 149.348 87.4907" stroke="#404040" stroke-width="8" stroke-linecap="round" stroke-linejoin="round"/>
<path d="M173.352 86.9466C174.419 84.2955 176.414 77.1461 184.632 77.6568C192.849 78.1674 193.229 85.6472 192.473 88.4312" stroke="#404040" stroke-width="8" stroke-linecap="round" stroke-linejoin="round"/>
<path d="M151 125C154.655 127.365 165.318 130.676 178.734 125" stroke="#FF335F" stroke-width="8" stroke-linecap="round"/>
<path d="M96.0876 99.2266C95.4197 83.9701 107.218 82.699 110.78 83.2075L114.12 112.194C109.445 113.72 96.7012 113.245 96.0876 99.2266Z" fill="#FFEEE7"/>
<path d="M98.4999 49C107.3 17 141 1.33331 155 0.999979C189 -2.00002 216.5 24.5 222.5 49C228.5 73.5 245 100.5 235.5 124C226 147.5 239.5 167 243 178C246.5 189 249.5 225 205 221.5C169.4 218.7 170.667 172.167 176 149.5C189 142 198.284 136.5 204 113C211.2 83.4 207 59 203.5 50.5H191.5C191.5 45 179 29.5 181 34.5C182.6 38.5 183.333 46.8333 183.5 50.5H120C116 54.5 112.333 74.1666 111 83.5C108 124 124 142.5 140.5 152.5C144.333 167.167 144.9 200.2 128.5 215C108 233.5 62.4999 216 70.9999 180.5C79.4999 145 94.4999 159 81.9999 121C69.4999 83 87.4999 89 98.4999 49Z" fill="#EEDE9D"/>
<defs>
<linearGradient id="paint0_linear_584_1280" x1="151" y1="99.5" x2="151" y2="381" gradientUnits="userSpaceOnUse">
<stop stop-color="#FFD6C4"/>
<stop offset="1" stop-color="#FF335F"/>
</linearGradient>
</defs>
</svg>
