<svg width="290" height="391" viewBox="0 0 290 391" fill="none" xmlns="http://www.w3.org/2000/svg">
<path d="M24.6927 240.801C16.2226 315.341 13.4776 314.999 1.04678 385.394C0.765357 386.987 1.98271 388.5 3.60105 388.5H287.148C288.68 388.5 289.879 387.169 289.736 385.644C285.945 345.333 281.994 331.567 280.103 240.801C278.168 147.924 213.025 173.079 147.238 173.078C94.9947 173.078 34.3671 155.664 24.6927 240.801Z" fill="url(#paint0_linear_584_1282)"/>
<path d="M51.7815 386.565C59.0912 362.916 74.2266 308.523 76.2906 280.144C78.3545 251.765 79.7304 240.371 80.1604 238.221" stroke="#404040" stroke-width="8" stroke-linecap="round" stroke-linejoin="round"/>
<path d="M234.955 386.565C227.645 362.916 225.409 308.523 223.345 280.144C221.281 251.765 219.905 240.371 219.475 238.221" stroke="#404040" stroke-width="8" stroke-linecap="round" stroke-linejoin="round"/>
<path d="M109.078 29.1768C114.731 14.6768 133.5 11 145 17.5C184.5 -16.0001 218.5 6.49999 217 32.9999L209.578 92.1768H103.578C101 79 99.8782 52.7768 109.078 29.1768Z" fill="#FF335F"/>
<path fill-rule="evenodd" clip-rule="evenodd" d="M113.188 64.0813C106.634 91.6701 104.834 145.439 134.338 156.404L133.719 173.423L152.312 190.203L173.424 173.423L174.327 154.469C204.641 140.924 205.744 90.3824 202.5 64.0813C200.715 49.6043 180.5 32.6573 168.5 32.6573C159.3 50.7831 128.458 61.159 113.188 64.0813Z" fill="#FCDBCD"/>
<path d="M156 84.0001C156.531 88.8597 154.993 103.296 148.226 113.214L160.442 114.47" stroke="#404040" stroke-width="8" stroke-linecap="round" stroke-linejoin="round"/>
<path d="M144.013 132.96C147.668 135.325 158 138 167.5 134" stroke="#404040" stroke-width="8" stroke-linecap="round"/>
<path d="M217.447 103.227C218.115 87.9702 206.316 86.699 202.755 87.2076L199.415 116.194C204.09 117.72 216.834 117.245 217.447 103.227Z" fill="#FCDBCD"/>
<path d="M93.0873 103.227C92.4195 87.9702 107.218 86.699 110.78 87.2076L114.119 116.194C109.444 117.72 93.701 117.245 93.0873 103.227Z" fill="#FCDBCD"/>
<path d="M132 102.5C118.8 102.1 116.5 92.3333 117 87.5C116.833 82.5 120.6 71.6 133 72C145.4 72.4 149.167 81.8333 149.5 86.5L163 87.5C162.667 82.6666 165.3 73 178.5 73C183.303 73 186.796 74.28 189.295 76.1413C196.319 81.372 195.372 93.0779 188.744 98.8025C186.237 100.968 182.884 102.5 178.5 102.5C167.3 102.5 163.5 92.5 163 87.5L149.5 86.5C149.5 91.6666 145.2 102.9 132 102.5Z" fill="white"/>
<path d="M149.5 86.5C149.5 91.6666 145.2 102.9 132 102.5C118.8 102.1 116.5 92.3333 117 87.5C116.833 82.5 120.6 71.6 133 72C145.4 72.4 149.167 81.8333 149.5 86.5ZM149.5 86.5L163 87.5M163 87.5C163.5 92.5 167.3 102.5 178.5 102.5C182.884 102.5 186.237 100.968 188.744 98.8025C195.372 93.0779 196.319 81.372 189.295 76.1413C186.796 74.28 183.303 73 178.5 73C165.3 73 162.667 82.6666 163 87.5Z" stroke="#404040" stroke-width="8" stroke-linecap="round" stroke-linejoin="round"/>
<rect width="7.79145" height="11.8415" rx="3.89573" transform="matrix(0.982591 0.185783 -0.216777 0.976221 134.567 82.0001)" fill="#404040"/>
<rect width="7.79145" height="11.8415" rx="3.89573" transform="matrix(0.982591 0.185783 -0.216777 0.976221 173.963 82.1273)" fill="#404040"/>
<path d="M128 176L122 227.5L153.5 193L177 229.5V176" stroke="#404040" stroke-width="8" stroke-linecap="round" stroke-linejoin="round"/>
<defs>
<linearGradient id="paint0_linear_584_1282" x1="145.25" y1="169.973" x2="145" y2="507.5" gradientUnits="userSpaceOnUse">
<stop stop-color="#BFBFBF"/>
<stop offset="1" stop-color="#E2A49B"/>
</linearGradient>
</defs>
</svg>
