<svg width="40" height="21" viewBox="0 0 40 21" fill="none" xmlns="http://www.w3.org/2000/svg">
<path fill-rule="evenodd" clip-rule="evenodd" d="M19.4365 10.5665C19.8638 11.3768 20.1056 12.3001 20.1056 13.2798C20.1056 16.4973 17.4973 19.1056 14.2798 19.1056H8.82582C5.60831 19.1056 3 16.4973 3 13.2798C3 10.6783 4.7052 8.475 7.05889 7.72674C7.1233 4.55298 9.71621 2 12.9054 2H14.2579C17.4875 2 20.1056 4.61812 20.1056 7.84773C20.1056 8.82925 19.8638 9.75429 19.4365 10.5665Z" fill="#404040"/>
<path d="M10.2022 11.5035L12.2194 6.66916C12.2734 6.53972 12.3999 6.45543 12.5401 6.45543H14.7169C14.9686 6.45543 15.1368 6.71458 15.0344 6.94446L13.6801 9.98422C13.5776 10.2141 13.7459 10.4733 13.9976 10.4733H14.9791C15.2752 10.4733 15.4357 10.8198 15.2442 11.0456L11.7795 15.1309C11.5246 15.4314 11.0454 15.1429 11.1917 14.777L12.1179 12.4616C12.2092 12.2333 12.0411 11.9849 11.7952 11.9849H10.5229C10.2748 11.9849 10.1066 11.7325 10.2022 11.5035Z" fill="#EEDE9D"/>
<path fill-rule="evenodd" clip-rule="evenodd" d="M36.4524 11.0112C36.8021 11.6744 37 12.4301 37 13.2319C37 15.8653 34.8652 18 32.2319 18H27.7681C25.1348 18 23 15.8653 23 13.2319C23 11.1027 24.3956 9.29944 26.322 8.68703C26.3747 6.08948 28.4969 4 31.107 4H32.214C34.8573 4 37.0001 6.14279 37.0001 8.78605C37.0001 9.58937 36.8021 10.3465 36.4524 11.0112Z" fill="#404040"/>
<path d="M28.931 11.6907L30.5294 7.86026C30.5834 7.73082 30.7099 7.64653 30.8501 7.64653H32.4925C32.7441 7.64653 32.9124 7.90568 32.81 8.13556L31.7806 10.4459C31.6782 10.6757 31.8464 10.9349 32.0981 10.9349H32.668C32.9641 10.9349 33.1246 11.2815 32.9331 11.5073L30.4362 14.4514C30.1813 14.752 29.702 14.4634 29.8484 14.0975L30.4279 12.6488C30.5192 12.4205 30.3511 12.1721 30.1052 12.1721H29.2518C29.0037 12.1721 28.8355 11.9197 28.931 11.6907Z" fill="#EEDE9D"/>
</svg>
