<svg width="90" height="89" viewBox="0 0 90 89" fill="none" xmlns="http://www.w3.org/2000/svg">
<rect width="88.5555" height="88.5555" rx="44.2778" transform="matrix(4.37114e-08 -1 -1 -4.37114e-08 89.4734 88.5555)" fill="white"/>
<path fill-rule="evenodd" clip-rule="evenodd" d="M43.6118 31.8246C43.6118 31.0604 44.2313 30.4409 44.9955 30.4409C45.7597 30.4409 46.3792 31.0604 46.3792 31.8246L46.3792 51.3865C46.3792 52.1261 47.2734 52.4965 47.7964 51.9735L56.4703 43.2996C57.0107 42.7593 57.8868 42.7593 58.4271 43.2996C58.9675 43.84 58.9675 44.7161 58.4271 45.2565L45.9739 57.7097C45.4335 58.2501 44.5574 58.2501 44.0171 57.7097L31.5638 45.2565C31.0234 44.7161 31.0234 43.84 31.5638 43.2996C32.1042 42.7593 32.9803 42.7593 33.5206 43.2996L42.1946 51.9736C42.7176 52.4966 43.6118 52.1262 43.6118 51.3865L43.6118 31.8246Z" fill="#595959"/>
</svg>
