<svg width="359" height="400" viewBox="0 0 359 400" fill="none" xmlns="http://www.w3.org/2000/svg">
<path d="M59.0593 249.801C50.5888 324.343 14.3203 323.999 0.932755 394.402C0.630436 395.991 1.84928 397.5 3.46762 397.5H355.476C357.007 397.5 358.211 396.17 358.013 394.651C352.752 354.335 316.361 340.572 314.47 249.801C312.535 156.924 247.391 182.078 181.604 182.078C129.361 182.078 68.7336 164.664 59.0593 249.801Z" fill="#FF335F"/>
<path d="M86.1481 395.565C93.4578 371.916 108.593 317.523 110.657 289.144C112.721 260.765 114.097 249.371 114.527 247.221" stroke="#404040" stroke-width="8" stroke-linecap="round" stroke-linejoin="round"/>
<path d="M269.321 395.565C262.012 371.916 259.776 317.523 257.712 289.144C255.648 260.765 254.272 249.371 253.842 247.221" stroke="#404040" stroke-width="8" stroke-linecap="round" stroke-linejoin="round"/>
<path d="M145.554 80.0812C155.677 31.6604 237.814 40.0608 239.652 85.9769C240.712 112.456 239.007 156.924 208.693 170.469L207.79 181.423C207.094 186.317 204.683 198.203 186.679 198.203C168.675 198.203 166.782 187.016 168.086 181.423L168.705 172.404C139.201 161.439 139.001 107.67 145.554 80.0812Z" fill="#FCDBCD"/>
<path d="M195.161 102.204C194.63 107.063 197.962 117.295 204.729 127.214L195.512 131.47" stroke="#404040" stroke-width="8" stroke-linecap="round" stroke-linejoin="round"/>
<path d="M160.936 104.592C161.805 101.464 165.433 95.4461 172.996 96.3992C180.559 97.3524 181.293 104.191 180.715 107.491" stroke="#404040" stroke-width="8" stroke-linecap="round" stroke-linejoin="round"/>
<path d="M204.719 106.947C205.786 104.295 207.78 97.1461 215.998 97.6568C224.216 98.1674 224.596 105.647 223.839 108.431" stroke="#404040" stroke-width="8" stroke-linecap="round" stroke-linejoin="round"/>
<path d="M178.379 145.96C182.034 148.325 192.698 151.636 206.113 145.96" stroke="#404040" stroke-width="8" stroke-linecap="round"/>
<path d="M253.814 119.227C254.482 103.97 242.683 102.699 239.121 103.207L235.782 132.194C240.457 133.72 253.2 133.245 253.814 119.227Z" fill="#FCDBCD"/>
<path d="M127.454 119.227C126.786 103.97 138.585 102.699 142.147 103.207L145.486 132.194C140.811 133.72 128.068 133.245 127.454 119.227Z" fill="#FCDBCD"/>
<path d="M143.524 63.3866L141.842 103.77C141.718 106.73 144.49 109.641 146.706 107.677C149.079 105.573 148.912 101.58 149.355 97.5865C150.502 87.2669 150.129 70.3685 158.385 62.1128C164.348 56.1503 181.61 62.2305 197.084 62.5452C208.391 62.7752 218.143 57.0086 224.818 60.8229C238.362 68.5626 236.427 84.687 235.782 97.5865C235.527 102.681 236.101 105.68 237.005 107.358C238.14 109.465 240.369 107.517 240.541 105.131C241.516 91.5243 244.167 73.6216 244.167 56.3081C244.167 26.6392 216.433 10.5148 202.243 6C203.443 15.8999 190.748 21.9915 175.895 25.9483C158.171 30.67 144.288 45.06 143.524 63.3866Z" fill="#404040" stroke="#404040" stroke-width="8" stroke-linecap="round"/>
<path d="M166.143 180.143C149.191 190.806 157.047 211.012 180.836 268.083C181.67 270.085 184.446 270.277 185.521 268.393C201.136 241.019 231.26 189.273 209.521 180.143" stroke="white" stroke-width="8" stroke-linecap="round"/>
<path fill-rule="evenodd" clip-rule="evenodd" d="M209.131 287.796H154.718L149.212 342.832C148.598 348.965 153.414 354.287 159.578 354.287H193.051C198.403 354.287 202.884 350.231 203.417 344.906L209.131 287.796ZM172.846 298.877C167.751 298.877 163.403 302.563 162.569 307.59L158.52 332.006C157.467 338.354 162.363 344.128 168.797 344.128H184.443C189.46 344.128 193.764 340.553 194.684 335.622L199.24 311.206C200.436 304.797 195.518 298.877 188.999 298.877H172.846Z" fill="white"/>
<path d="M209.348 284.038C209.693 278.058 204.937 273.02 198.947 273.02H165.405C159.884 273.02 155.323 277.326 155.004 282.837L154.718 287.796H209.131L209.348 284.038Z" fill="#EEDE9D"/>
<path d="M172.846 298.877C167.751 298.877 163.403 302.563 162.569 307.59L158.52 332.006C157.467 338.354 162.363 344.128 168.797 344.128H184.443C189.46 344.128 193.764 340.553 194.684 335.622L199.24 311.206C200.436 304.797 195.518 298.877 188.999 298.877H172.846Z" fill="white"/>
</svg>
