<svg width="40" height="21" viewBox="0 0 40 21" fill="none" xmlns="http://www.w3.org/2000/svg">
<g opacity="0.7">
<path fill-rule="evenodd" clip-rule="evenodd" d="M19.4364 10.5664C19.8637 11.3768 20.1056 12.3001 20.1056 13.2798C20.1056 16.4973 17.4973 19.1056 14.2798 19.1056H8.82582C5.60831 19.1056 3 16.4973 3 13.2798C3 10.6783 4.70514 8.47512 7.05876 7.72682C7.12313 4.55303 9.71605 2 12.9053 2H14.2578C17.4874 2 20.1055 4.61812 20.1055 7.84773C20.1055 8.82921 19.8637 9.75421 19.4364 10.5664Z" fill="#9D9D9D"/>
</g>
<g opacity="0.1">
<path fill-rule="evenodd" clip-rule="evenodd" d="M36.4524 11.0112C36.8021 11.6744 37 12.43 37 13.2319C37 15.8653 34.8652 18 32.2319 18H27.7681C25.1348 18 23 15.8653 23 13.2319C23 11.1027 24.3956 9.29951 26.3219 8.68707C26.3746 6.0895 28.4967 4 31.1069 4H32.2139C34.8572 4 37 6.14279 37 8.78605C37 9.58934 36.8021 10.3464 36.4524 11.0112Z" fill="#9D9D9D"/>
</g>
</svg>
