<svg width="320" height="435" viewBox="0 0 320 435" fill="none" xmlns="http://www.w3.org/2000/svg">
<path fill-rule="evenodd" clip-rule="evenodd" d="M99.6125 128.132C99.0309 133.865 98.7726 139.289 98.8087 144.41C99.1213 188.713 121.476 210.311 147.222 213H182.5C217 209 233.724 181.506 234.926 128.132C236.252 69.317 218.66 53.9641 183.808 51.4886C179.126 51.1561 174.115 51.0559 168.773 51.114C162.958 51.1772 157.627 51.3546 152.735 51.7638C119.682 54.5289 105.724 67.8797 99.6125 128.132Z" fill="#8C8B7C"/>
<path d="M147.222 213C121.476 210.311 99.1213 188.713 98.8087 144.41C95.9047 191.633 86.5988 269.233 66 298H262.5C238 244.5 237.668 171.038 234.926 128.132C233.724 181.506 217 209 182.5 213H147.222Z" fill="#8C8B7C"/>
<path d="M28.9352 357.778L0 434.5H73H244.5H319.5L295.363 357.701C293.125 350.578 291.459 343.288 290.384 335.9L284.897 298.229C280.218 266.099 254.881 240.922 222.722 236.446L180 230.5H150L104.859 236.815C74.1048 241.117 49.4388 264.405 43.3771 294.861L35.2485 335.703C33.752 343.222 31.6405 350.605 28.9352 357.778Z" fill="#404040"/>
<mask id="mask0_584_1281" style="mask-type:alpha" maskUnits="userSpaceOnUse" x="0" y="230" width="320" height="204">
<path d="M28.9759 357.29L0 434H73.1142H244.883H320L295.83 357.214C293.585 350.083 291.915 342.783 290.836 335.385L285.343 297.727C280.657 265.598 255.314 240.426 223.155 235.958L180.282 230H150.235L104.94 236.327C74.1868 240.622 49.5169 263.902 43.4465 294.354L35.3065 335.188C33.8058 342.717 31.6885 350.109 28.9759 357.29Z" fill="#404040"/>
</mask>
<g mask="url(#mask0_584_1281)">
<path d="M84.5 287C92.1667 309.333 105.2 370.2 96 435" stroke="white" stroke-width="8" stroke-linecap="round" stroke-linejoin="round"/>
<path d="M244.664 287C236.998 309.333 223.964 370.2 233.164 435" stroke="white" stroke-width="8" stroke-linecap="round" stroke-linejoin="round"/>
</g>
<path fill-rule="evenodd" clip-rule="evenodd" d="M144.628 208.443C115.125 197.478 114.925 143.709 121.478 116.12C122.171 115.792 122.897 115.42 123.651 115.006C140.453 106.315 171.153 88.6879 174.989 79.5C178.181 93.1 156.078 109.58 144.628 116.12H151.586C162.815 116.12 174.751 115.753 183.788 109.087C187.335 106.47 189.985 103.243 190.116 99.5C198.065 109.19 207.006 118.316 215.576 122.016C216.636 148.495 214.931 192.963 184.617 206.508L183.714 217.461C183.714 220.456 183.826 223.121 183.925 225.482C184.475 238.553 184.633 242.313 163.221 241.28L162.735 241.257C145.216 240.413 144.006 240.354 144.628 224.5V208.443Z" fill="#FCDBCD"/>
<path d="M168 139C168.812 143.5 175.146 147.72 181.129 154.538C183.252 156.958 182.131 160.613 179.131 161.778L174.007 163.767" stroke="#404040" stroke-width="8" stroke-linecap="round" stroke-linejoin="round"/>
<path d="M159.5 183.5C166 187 176.5 186.5 181.5 183.5" stroke="#404040" stroke-width="8" stroke-linecap="round" stroke-linejoin="round"/>
<rect width="7.79145" height="11.8415" rx="3.89573" transform="matrix(0.982591 0.185783 -0.216777 0.976221 145.567 132)" fill="#404040"/>
<rect width="7.79145" height="11.8415" rx="3.89573" transform="matrix(0.982591 0.185783 -0.216777 0.976221 186.963 131.127)" fill="#404040"/>
<path d="M141 232C141 235.5 142.04 242.365 162.774 241.985C183.507 241.604 187 235.5 187 232" stroke="white" stroke-width="8" stroke-linecap="round" stroke-linejoin="round"/>
<path d="M230.387 153.106C231.055 137.85 219.256 136.579 215.694 137.087L212.355 166.074C217.03 167.6 229.774 167.125 230.387 153.106Z" fill="#FCDBCD"/>
<path d="M104.027 153.106C103.359 137.85 115.158 136.579 118.72 137.087L122.059 166.074C117.384 167.6 104.641 167.125 104.027 153.106Z" fill="#FCDBCD"/>
</svg>
