<svg width="89" height="89" viewBox="0 0 89 89" fill="none" xmlns="http://www.w3.org/2000/svg">
<rect x="0.0568848" width="88.5555" height="88.5555" rx="44.2778" fill="white"/>
<path fill-rule="evenodd" clip-rule="evenodd" d="M56.7881 45.8592C57.5523 45.8592 58.1718 45.2397 58.1718 44.4756C58.1718 43.7114 57.5523 43.0919 56.7881 43.0919H37.2262C36.4866 43.0919 36.1162 42.1976 36.6392 41.6746L45.313 33.0008C45.8534 32.4604 45.8534 31.5843 45.313 31.0439C44.7727 30.5036 43.8966 30.5036 43.3562 31.0439L30.903 43.4972C30.3626 44.0376 30.3626 44.9136 30.903 45.454L43.3562 57.9073C43.8966 58.4476 44.7727 58.4476 45.313 57.9073C45.8534 57.3669 45.8534 56.4908 45.313 55.9504L36.6391 47.2765C36.1161 46.7535 36.4865 45.8592 37.2261 45.8592H56.7881Z" fill="#595959"/>
</svg>
