<svg width="249" height="435" viewBox="0 0 249 435" fill="none" xmlns="http://www.w3.org/2000/svg">
<path d="M0 434.5L21.5 338H74.5L53.5 434.5H0Z" fill="#FCDBCD"/>
<path d="M248 434.5L226.5 338H173.5L194.5 434.5H248Z" fill="#FCDBCD"/>
<path d="M8.82382 339H66C74.8 364.2 54.8333 413.167 49 434.5H200.5C182.9 408.1 179 359.833 183.5 339H247.729C248.377 339 248.853 338.394 248.701 337.765L230.966 264.512C227.953 252.069 217.814 242.619 205.189 240.488L146 230.5H116L54.5074 240.686C42.2924 242.709 32.3407 251.598 28.9558 263.507L7.86191 337.727C7.68044 338.365 8.16001 339 8.82382 339Z" fill="#EEDE9D"/>
<path d="M198.5 430.5C180.9 404.1 179 359.833 183.5 339C185.333 331.5 189.1 313.4 189.5 301M50 430.5C55.8333 409.167 72.9767 369 66 339C64.3333 331.833 61.3 314.2 62.5 301" stroke="#404040" stroke-width="8" stroke-linecap="round" stroke-linejoin="round"/>
<path d="M113.222 213C84.5 210 59.9993 183.468 65.6125 128.132C71.7245 67.8797 85.6818 54.5289 118.735 51.7638C112.554 52.0378 100.292 47.8763 100.693 29.0386C101.194 5.49158 118.735 -0.885743 134.773 0.0953839C150.811 1.07651 167.35 9.41608 165.345 29.0386C163.741 44.7367 154.319 50.5461 149.808 51.4886C184.66 53.9641 202.252 69.317 200.926 128.132C199.724 181.506 183 209 148.5 213H113.222Z" fill="#616161"/>
<path d="M110.628 208.443C81.1246 197.478 80.9247 143.709 87.4779 116.12C102.749 108.9 134.1 79.769 134.5 71C142.69 80.4975 163.004 113.997 181.576 122.016C182.636 148.495 180.931 192.963 150.617 206.508L149.714 217.461C149.714 237.039 154.5 242.5 129.221 241.28L128.735 241.257C111.216 240.413 110.006 240.354 110.628 224.5V208.443Z" fill="#FCDBCD"/>
<path d="M106.5 232C106.5 235.5 107.573 242.365 128.96 241.985C150.346 241.604 153.949 235.5 153.949 232" stroke="white" stroke-width="8" stroke-linecap="round" stroke-linejoin="round"/>
<path d="M196.251 99.4137C155.238 88.1529 99.8355 92.6704 73.5069 96.9075C71.6639 97.2042 70.0025 95.7835 70.2167 93.9291C71.0758 86.4936 74.2787 78.7992 76 75.5C85 62 187.5 64.5 194 75.5C198.073 82.3934 199.549 90.9641 199.917 96.5975C200.046 98.5647 198.152 99.9356 196.251 99.4137Z" fill="#FF335F"/>
<path d="M72 85C91.3333 79.5 143.5 72.8 197.5 86" stroke="white" stroke-width="8" stroke-linecap="round" stroke-linejoin="round"/>
<path d="M134 141C134.812 145.5 141.146 149.72 147.129 156.538C149.252 158.958 148.131 162.613 145.131 163.778L140.007 165.767" stroke="#404040" stroke-width="8" stroke-linecap="round" stroke-linejoin="round"/>
<path d="M125.5 185.5C132 189 142.5 188.5 147.5 185.5" stroke="#404040" stroke-width="8" stroke-linecap="round" stroke-linejoin="round"/>
<path d="M101.984 137.543C102.853 140.671 106.481 146.689 114.045 145.736C121.608 144.782 122.342 137.944 121.763 134.644" stroke="#404040" stroke-width="8" stroke-linecap="round" stroke-linejoin="round"/>
<path d="M145.767 135.188C146.834 137.839 148.829 144.989 157.046 144.478C165.264 143.967 165.644 136.488 164.888 133.704" stroke="#404040" stroke-width="8" stroke-linecap="round" stroke-linejoin="round"/>
<path d="M196.387 148.106C197.055 132.85 185.256 131.579 181.694 132.087L178.355 161.074C183.03 162.6 195.774 162.125 196.387 148.106Z" fill="#FCDBCD"/>
<path d="M70.0273 148.106C69.3594 132.85 81.1582 131.579 84.7201 132.087L88.0593 161.074C83.3843 162.6 70.6409 162.125 70.0273 148.106Z" fill="#FCDBCD"/>
</svg>
