<svg width="398" height="440" viewBox="0 0 398 440" fill="none" xmlns="http://www.w3.org/2000/svg">
<rect x="4" y="4" width="391" height="432" rx="5" fill="#F2F2F2"/>
<path fill-rule="evenodd" clip-rule="evenodd" d="M4.57132 6.6358C4.57132 6.14715 4.96745 5.75102 5.45609 5.75102H191.848C192.337 5.75102 192.733 6.14715 192.733 6.6358V55.1508C192.733 58.2456 195.242 60.7544 198.336 60.7544H200.401C200.616 60.7544 200.818 60.6967 200.992 60.5961C203.445 59.9997 205.267 57.788 205.267 55.1508V6.6358C205.267 6.14715 205.663 5.75102 206.152 5.75102H392.544C393.033 5.75102 393.429 6.14715 393.429 6.6358V136.697C393.429 137.186 393.033 137.582 392.544 137.582H326.039C324.247 137.582 322.794 139.035 322.794 140.826V185.802C322.794 187.594 324.247 189.046 326.039 189.046H394.756C395.244 189.046 394.641 189.442 394.641 189.931V223.258H328.398C325.303 223.258 322.794 225.766 322.794 228.861V269.118C322.794 272.213 325.303 274.722 328.398 274.722H390.185C391.976 274.722 393.429 276.174 393.429 277.966V345.153C393.429 346.945 391.976 348.397 390.185 348.397H367.918C364.823 348.397 362.314 350.906 362.314 354.001V355.291C362.314 358.386 364.823 360.895 367.918 360.895H390.185C391.976 360.895 393.429 362.347 393.429 364.139V431.326C393.429 433.118 391.976 434.571 390.185 434.571H7.81549C6.02378 434.571 4.57132 433.118 4.57132 431.326V364.139C4.57132 362.347 6.02378 360.895 7.81549 360.895H30.0823C33.177 360.895 35.6858 358.386 35.6858 355.291V354.001C35.6858 350.906 33.177 348.397 30.0823 348.397H7.81549C6.02378 348.397 4.57132 346.945 4.57132 345.153V277.966C4.57132 276.174 6.02379 274.722 7.81549 274.722H69.6021C72.6968 274.722 75.2056 272.213 75.2056 269.118V228.861C75.2056 225.766 72.6968 223.258 69.6021 223.258H4.35939V189.931C4.35939 189.442 3.75552 189.046 4.24417 189.046H71.9615C73.7532 189.046 75.2056 187.594 75.2056 185.802V140.826C75.2056 139.035 73.7532 137.582 71.9615 137.582H5.45609C4.96745 137.582 4.57132 137.186 4.57132 136.697V6.6358Z" fill="#EEDE9D"/>
<path d="M5.45609 5.75102C4.96745 5.75102 4.57132 6.14715 4.57132 6.6358V136.697C4.57132 137.186 4.96745 137.582 5.45609 137.582H71.9615C73.7532 137.582 75.2056 139.035 75.2056 140.826V185.802C75.2056 187.594 73.7532 189.046 71.9615 189.046H4.24417C3.75552 189.046 4.35939 189.442 4.35939 189.931V223.258H69.6021C72.6968 223.258 75.2056 225.766 75.2056 228.861V269.118C75.2056 272.213 72.6968 274.722 69.6021 274.722H7.81549C6.02379 274.722 4.57132 276.174 4.57132 277.966V345.153C4.57132 346.945 6.02378 348.397 7.81549 348.397H30.0823C33.177 348.397 35.6858 350.906 35.6858 354.001V355.291C35.6858 358.386 33.177 360.895 30.0823 360.895H7.81549C6.02378 360.895 4.57132 362.347 4.57132 364.139V431.326C4.57132 433.118 6.02378 434.571 7.81549 434.571H390.185C391.976 434.571 393.429 433.118 393.429 431.326V364.139C393.429 362.347 391.976 360.895 390.185 360.895H367.918C364.823 360.895 362.314 358.386 362.314 355.291V354.001C362.314 350.906 364.823 348.397 367.918 348.397H390.185C391.976 348.397 393.429 346.945 393.429 345.153V277.966C393.429 276.174 391.976 274.722 390.185 274.722H328.398C325.303 274.722 322.794 272.213 322.794 269.118V228.861C322.794 225.766 325.303 223.258 328.398 223.258H394.641V189.931C394.641 189.442 395.244 189.046 394.756 189.046H326.039C324.247 189.046 322.794 187.594 322.794 185.802V140.826C322.794 139.035 324.247 137.582 326.039 137.582H392.544C393.033 137.582 393.429 137.186 393.429 136.697V6.6358C393.429 6.14715 393.033 5.75102 392.544 5.75102H206.152C205.663 5.75102 205.267 6.14715 205.267 6.6358V55.1508C205.267 57.788 203.445 59.9997 200.992 60.5961C200.818 60.6967 200.616 60.7544 200.401 60.7544H198.336C195.242 60.7544 192.733 58.2456 192.733 55.1508V6.6358C192.733 6.14715 192.337 5.75102 191.848 5.75102H5.45609Z" fill="#EEDE9D"/>
<path d="M4.17959 224.437H69.602C72.0452 224.437 74.0258 226.418 74.0258 228.861V269.118C74.0258 271.561 72.0452 273.542 69.602 273.542H7.81538C5.37215 273.542 3.39152 275.523 3.39152 277.966V314.094V334.37V344.508V345.153C3.39152 347.597 5.37215 349.577 7.81538 349.577H30.0821C32.5254 349.577 34.506 351.558 34.506 354.001V355.291C34.506 357.735 32.5254 359.715 30.0821 359.715H7.81538C5.37215 359.715 3.39152 361.696 3.39152 364.139V364.784V374.922V395.198V431.326C3.39152 433.77 5.37215 435.75 7.81538 435.75H203.792" stroke="#404040" stroke-width="2.06447" stroke-linecap="round" stroke-linejoin="round"/>
<path d="M393.82 224.437H328.398C325.955 224.437 323.974 226.418 323.974 228.861V269.118C323.974 271.561 325.955 273.542 328.398 273.542H390.185C392.628 273.542 394.608 275.523 394.608 277.966V314.094V334.37V344.508V345.153C394.608 347.597 392.628 349.577 390.185 349.577H367.918C365.475 349.577 363.494 351.558 363.494 354.001V355.291C363.494 357.735 365.475 359.715 367.918 359.715H390.185C392.628 359.715 394.608 361.696 394.608 364.139V364.784V374.922V395.198V431.326C394.608 433.77 392.628 435.75 390.185 435.75H194.207" stroke="#404040" stroke-width="2.06447" stroke-linecap="round" stroke-linejoin="round"/>
<path d="M4.17964 187.867H71.9614C73.1016 187.867 74.0259 186.942 74.0259 185.802V140.826C74.0259 139.686 73.1016 138.762 71.9614 138.762H5.45604C4.31587 138.762 3.39157 137.837 3.39157 136.697V6.6358C3.39157 5.49563 4.31587 4.57133 5.45604 4.57133H191.848C192.988 4.57133 193.913 5.49563 193.913 6.6358V55.1508C193.913 57.594 195.893 59.5747 198.336 59.5747H200.401" stroke="#404040" stroke-width="2.06447" stroke-linecap="round" stroke-linejoin="round"/>
<path d="M393.82 187.867H326.039C324.898 187.867 323.974 186.942 323.974 185.802V140.826C323.974 139.686 324.898 138.762 326.039 138.762H392.544C393.684 138.762 394.608 137.838 394.608 136.697V6.63582C394.608 5.49564 393.684 4.57135 392.544 4.57135H206.152C205.012 4.57135 204.087 5.49564 204.087 6.63582V55.1508C204.087 57.5941 202.107 59.5747 199.664 59.5747H199.221" stroke="#404040" stroke-width="2.06447" stroke-linecap="round" stroke-linejoin="round"/>
<rect x="37.6028" y="37.1605" width="38.93" height="24.7736" rx="4.42386" fill="#FFF8DB" stroke="#6C6B69" stroke-width="2.06447" stroke-linecap="round" stroke-linejoin="round"/>
<rect x="37.6028" y="92.6061" width="38.93" height="13.2716" rx="4.42386" fill="#FFF8DB" stroke="#6C6B69" stroke-width="2.06447" stroke-linecap="round" stroke-linejoin="round"/>
<rect x="110.154" y="304.067" width="52.7914" height="13.2716" rx="4.42386" fill="#FFF8DB" stroke="#6C6B69" stroke-width="2.06447" stroke-linecap="round" stroke-linejoin="round"/>
<rect x="235.497" y="304.067" width="52.7914" height="13.2716" rx="4.42386" fill="#FFF8DB" stroke="#6C6B69" stroke-width="2.06447" stroke-linecap="round" stroke-linejoin="round"/>
<path d="M319.55 308.491C319.55 306.047 321.531 304.067 323.974 304.067H357.3C359.744 304.067 361.724 306.047 361.724 308.491V312.914C361.724 315.358 359.744 317.338 357.3 317.338H340.637H334.591C333.777 317.338 333.117 317.998 333.117 318.813V355.236C333.117 357.679 331.136 359.66 328.693 359.66H323.974C321.531 359.66 319.55 357.679 319.55 355.236V317.338V308.491Z" fill="#FFF8DB" stroke="#6C6B69" stroke-width="2.06447" stroke-linecap="round" stroke-linejoin="round"/>
<path d="M78.8921 308.491C78.8921 306.047 76.9115 304.067 74.4683 304.067H41.1418C38.6986 304.067 36.718 306.047 36.718 308.491V312.914C36.718 315.358 38.6986 317.338 41.1418 317.338H57.8051H63.851C64.6654 317.338 65.3256 317.998 65.3256 318.813V355.236C65.3256 357.679 67.3062 359.66 69.7495 359.66H74.4683C76.9115 359.66 78.8921 357.679 78.8921 355.236V317.338V308.491Z" fill="#FFF8DB" stroke="#6C6B69" stroke-width="2.06447" stroke-linecap="round" stroke-linejoin="round"/>
<rect x="292.122" y="222.373" width="52.7914" height="13.2716" rx="4.42386" transform="rotate(90 292.122 222.373)" fill="#FFF8DB" stroke="#6C6B69" stroke-width="2.06447" stroke-linecap="round" stroke-linejoin="round"/>
<rect x="119.592" y="222.373" width="52.7914" height="13.2716" rx="4.42386" transform="rotate(90 119.592 222.373)" fill="#FFF8DB" stroke="#6C6B69" stroke-width="2.06447" stroke-linecap="round" stroke-linejoin="round"/>
<path d="M115.315 92.6061C117.758 92.6061 119.739 94.5868 119.739 97.03L119.739 116.421L119.739 128.329L119.739 131.333C119.739 133.777 121.72 135.757 124.163 135.757L155.867 135.757C158.31 135.757 160.291 137.738 160.291 140.181L160.291 143.241C160.291 145.684 158.31 147.665 155.867 147.665L124.163 147.665C121.72 147.665 119.739 149.645 119.739 152.089L119.739 152.144L119.739 164.051L119.739 183.443C119.739 185.886 117.758 187.867 115.315 187.867L110.891 187.867C108.448 187.867 106.467 185.886 106.467 183.443L106.467 97.03C106.467 94.5868 108.448 92.6061 110.891 92.6061L115.315 92.6061Z" fill="#FFF8DB" stroke="#6C6B69" stroke-width="2.06447" stroke-linecap="round" stroke-linejoin="round"/>
<path d="M283.127 92.6061C280.684 92.6061 278.703 94.5868 278.703 97.03L278.703 116.421L278.703 128.329L278.703 131.333C278.703 133.777 276.723 135.757 274.279 135.757L242.575 135.757C240.132 135.757 238.151 137.738 238.151 140.181L238.151 143.241C238.151 145.684 240.132 147.665 242.575 147.665L274.279 147.665C276.723 147.665 278.703 149.645 278.703 152.089L278.703 152.144L278.703 164.051L278.703 183.443C278.703 185.886 280.684 187.867 283.127 187.867L287.551 187.867C289.994 187.867 291.975 185.886 291.975 183.443L291.975 97.03C291.975 94.5868 289.994 92.6061 287.551 92.6061L283.127 92.6061Z" fill="#FFF8DB" stroke="#6C6B69" stroke-width="2.06447" stroke-linecap="round" stroke-linejoin="round"/>
<path d="M149.969 101.454C149.969 103.897 151.95 105.878 154.393 105.878H173.784H185.692H188.696C191.139 105.878 193.12 107.858 193.12 110.302V142.006C193.12 144.449 195.101 146.43 197.544 146.43L200.604 146.43C203.047 146.43 205.028 144.449 205.028 142.006V110.302C205.028 107.858 207.008 105.878 209.451 105.878H209.507H221.414H240.806C243.249 105.878 245.229 103.897 245.229 101.454V97.03C245.229 94.5868 243.249 92.6062 240.806 92.6062H154.393C151.95 92.6062 149.969 94.5868 149.969 97.03V101.454Z" fill="#FFF8DB" stroke="#6C6B69" stroke-width="2.06447" stroke-linecap="round" stroke-linejoin="round"/>
<path d="M149.969 272.215C149.969 274.658 151.95 276.639 154.393 276.639H173.784H185.692H187.811C190.255 276.639 192.235 278.619 192.235 281.063V312.767C192.235 315.21 194.216 317.191 196.659 317.191L201.488 317.191C203.932 317.191 205.912 315.21 205.912 312.767V280.233C205.912 278.248 207.522 276.639 209.507 276.639V276.639H221.414H240.806C243.249 276.639 245.229 274.658 245.229 272.215V267.791C245.229 265.348 243.249 263.367 240.806 263.367H154.393C151.95 263.367 149.969 265.348 149.969 267.791V272.215Z" fill="#FFF8DB" stroke="#6C6B69" stroke-width="2.06447" stroke-linecap="round" stroke-linejoin="round"/>
<path d="M149.969 356.858C149.969 359.301 151.95 361.282 154.393 361.282H173.784H185.692H187.811C190.255 361.282 192.235 363.263 192.235 365.706V397.41C192.235 399.853 194.216 401.834 196.659 401.834L201.488 401.834C203.932 401.834 205.912 399.853 205.912 397.41V364.876C205.912 362.891 207.522 361.282 209.507 361.282V361.282H221.414H240.806C243.249 361.282 245.229 359.301 245.229 356.858V352.434C245.229 349.991 243.249 348.01 240.806 348.01H154.393C151.95 348.01 149.969 349.991 149.969 352.434V356.858Z" fill="#FFF8DB" stroke="#6C6B69" stroke-width="2.06447" stroke-linecap="round" stroke-linejoin="round"/>
<path d="M34.0638 392.986C34.0638 390.543 36.0444 388.562 38.4876 388.562H88.8459H100.753H102.283C104.727 388.562 106.707 386.582 106.707 384.139V352.434C106.707 349.991 108.688 348.01 111.131 348.01L115.666 348.01C118.109 348.01 120.089 349.991 120.089 352.434V384.139C120.089 386.582 122.07 388.562 124.513 388.562H124.569H136.476H155.867C158.311 388.562 160.291 390.543 160.291 392.986V397.41C160.291 399.853 158.311 401.834 155.867 401.834H38.4876C36.0444 401.834 34.0638 399.853 34.0638 397.41V392.986Z" fill="#FFF8DB" stroke="#6C6B69" stroke-width="2.06447" stroke-linecap="round" stroke-linejoin="round"/>
<path d="M364.379 392.986C364.379 390.543 362.398 388.562 359.955 388.562H309.596H297.689H296.159C293.716 388.562 291.735 386.582 291.735 384.139V352.434C291.735 349.991 289.754 348.01 287.311 348.01L282.777 348.01C280.334 348.01 278.353 349.991 278.353 352.434V384.139C278.353 386.582 276.372 388.562 273.929 388.562H273.874H261.966H242.575C240.132 388.562 238.151 390.543 238.151 392.986V397.41C238.151 399.853 240.132 401.834 242.575 401.834H359.955C362.398 401.834 364.379 399.853 364.379 397.41V392.986Z" fill="#FFF8DB" stroke="#6C6B69" stroke-width="2.06447" stroke-linecap="round" stroke-linejoin="round"/>
<rect x="108.974" y="37.1605" width="52.2016" height="24.7736" rx="4.42386" fill="#FFF8DB" stroke="#6C6B69" stroke-width="2.06447" stroke-linecap="round" stroke-linejoin="round"/>
<rect width="38.93" height="24.7736" rx="4.42386" transform="matrix(-1 0 0 1 360.839 37.1605)" fill="#FFF8DB" stroke="#6C6B69" stroke-width="2.06447" stroke-linecap="round" stroke-linejoin="round"/>
<rect width="38.93" height="13.2716" rx="4.42386" transform="matrix(-1 0 0 1 360.839 92.6061)" fill="#FFF8DB" stroke="#6C6B69" stroke-width="2.06447" stroke-linecap="round" stroke-linejoin="round"/>
<rect width="52.2016" height="24.7736" rx="4.42386" transform="matrix(-1 0 0 1 289.468 37.1605)" fill="#FFF8DB" stroke="#6C6B69" stroke-width="2.06447" stroke-linecap="round" stroke-linejoin="round"/>
<path d="M157.932 180.494H215.294H240.953C243.396 180.494 245.377 182.474 245.377 184.917V226.059C245.377 228.503 243.396 230.483 240.953 230.483H157.932C155.489 230.483 153.508 228.503 153.508 226.059V184.917C153.508 182.474 155.489 180.494 157.932 180.494Z" fill="#DFE4E5"/>
<path d="M183.59 180.494H157.932C155.489 180.494 153.508 182.474 153.508 184.917V226.059C153.508 228.503 155.489 230.483 157.932 230.483H240.953C243.396 230.483 245.377 228.503 245.377 226.059V184.917C245.377 182.474 243.396 180.494 240.953 180.494H215.294" stroke="#6C6B69" stroke-width="2.06447" stroke-linecap="round" stroke-linejoin="round"/>
</svg>
