<svg width="283" height="381" viewBox="0 0 283 381" fill="none" xmlns="http://www.w3.org/2000/svg">
<path d="M13 380.5L34.5 284H87.5L66.5 380.5H13Z" fill="#FFEEE7"/>
<path d="M275 380.5L253.5 284H200.5L221.5 380.5H275Z" fill="#FFEEE7"/>
<path d="M148.5 0C94.5 0 83.9129 37.7286 91 63.5C102 103.5 85.5 136.667 74 162.5L59.5 196L232.5 207L220 162.5C193.6 137.7 201.833 98.3333 207 78.5C225.5 26 198.5 0 148.5 0Z" fill="#D9D9D9"/>
<path d="M129.628 151.443C100.125 140.478 99.9247 86.7088 106.478 59.12C121.749 51.9004 152.39 35.269 152.79 26.5C160.98 35.9975 182.004 56.9972 200.576 65.0157C201.636 91.4949 199.931 135.963 169.617 149.508L168.714 160.461C168.714 180.039 166.225 184.28 148.221 184.28C130.217 184.28 126.909 186.077 129.628 167.5V151.443Z" fill="#FFE4D9"/>
<rect width="7.79145" height="11.8415" rx="3.89573" transform="matrix(0.982591 0.185783 -0.216777 0.976221 128.567 75.3728)" fill="#404040"/>
<rect width="7.79145" height="11.8415" rx="3.89573" transform="matrix(0.982591 0.185783 -0.216777 0.976221 170.963 75.5)" fill="#404040"/>
<path d="M153.022 78.355C151.591 83.4811 149.4 91.7235 144.204 103.305C143.762 104.291 144.167 105.457 145.133 105.94L153.946 110.348" stroke="#404040" stroke-width="8" stroke-linecap="round" stroke-linejoin="round"/>
<path d="M138.793 123.926C142.835 129.041 159.007 129.899 166.587 123.092" stroke="#404040" stroke-width="8" stroke-linecap="round" stroke-linejoin="round"/>
<path d="M224.5 72.5C230.65 58.5221 203.816 82.1989 200.255 82.7075L196.915 111.694C201.59 113.22 219 85 224.5 72.5Z" fill="#FFE4D9"/>
<path d="M75.5 69C69.9872 54.7586 99.7182 82.199 103.28 82.7075L106.619 111.694C101.944 113.22 81.5 84.5 75.5 69Z" fill="#FFE4D9"/>
<path fill-rule="evenodd" clip-rule="evenodd" d="M210.508 165.086C184.115 183.554 161.839 226.724 154 246C143.5 212.707 111.273 178.324 90.6602 162.477C64.6856 149.287 36.837 140.444 31.0549 165.086C29.4271 172.023 28.2803 189.875 26.8135 212.707C23.3156 267.158 17.9983 349.929 0 380.5H71.1257H220.389H283C265.479 348.244 265.496 290.802 265.511 242.92C265.522 205.934 265.532 174.652 257.455 165.086C248.773 154.803 229.363 158.021 210.508 165.086Z" fill="#8C8B7C"/>
<path d="M126.223 182.441C117.1 177.328 104.132 169.318 90.6602 162.477C111.273 178.324 143.5 212.707 154 246C161.839 226.724 184.115 183.554 210.508 165.086C197.164 170.085 184.097 177.012 175.31 182.441V167.086C175.31 165.981 174.414 165.086 173.31 165.086H128.223C127.118 165.086 126.223 165.981 126.223 167.086V182.441Z" fill="#FFFEEE"/>
<path d="M220 376L204.5 279.5C211 271 220.1 248.7 204.5 227.5M71 376C79 338.833 94.1 257.1 90.5 227.5" stroke="#404040" stroke-width="8" stroke-linecap="round" stroke-linejoin="round"/>
<path d="M98 20.5C132 28 154.5 51 154.5 51C154.5 51 175.5 25.5 204 20.5" stroke="#EEDE9D" stroke-width="8" stroke-linecap="round" stroke-linejoin="round"/>
</svg>
