<svg width="345" height="357" viewBox="0 0 345 357" fill="none" xmlns="http://www.w3.org/2000/svg">
<path d="M46.4282 307.682C55.9141 261.676 56.7218 242.194 56.9557 234.218C56.9726 233.639 57.4752 233.204 58.0516 233.26L119.972 239.272C120.516 239.325 120.917 239.805 120.872 240.35L111.621 352.101C111.578 352.619 111.144 353.018 110.624 353.018H38.8581C38.2278 353.018 37.7543 352.444 37.8763 351.826C41.0232 335.876 44.6794 316.164 46.4282 307.682Z" fill="#FFD6C4"/>
<path d="M306.025 307.682C296.539 261.676 295.731 242.194 295.497 234.218C295.48 233.639 294.978 233.204 294.401 233.26L232.481 239.272C231.937 239.325 231.536 239.805 231.581 240.35L240.832 352.101C240.875 352.619 241.308 353.018 241.829 353.018H313.595C314.225 353.018 314.699 352.444 314.577 351.826C311.43 335.876 307.774 316.164 306.025 307.682Z" fill="#EFBAA4"/>
<path fill-rule="evenodd" clip-rule="evenodd" d="M254.64 353.018H93.4593C102.386 320.62 106.684 268.749 107.718 246.864L52.5442 231.524C61.8428 150.528 124.456 148.073 174.67 148.073C237.902 148.073 298.035 149.3 299.895 237.66L247.201 246.864L254.64 353.018Z" fill="#4E4E4E"/>
<path d="M140.321 47.7556C150.068 1.13136 232.884 9.22003 234.654 53.4325C235.674 78.9293 227.201 132.305 201.117 134.79L200.248 150.305C199.577 155.018 197.255 161.495 179.919 161.495C162.583 161.495 160.761 155.691 162.016 150.305L162.613 136.653C131.56 125.113 134.011 74.3208 140.321 47.7556Z" fill="#FFD6C4"/>
<path d="M184.332 69.0573C184.79 73.2507 182.261 81.5985 177.041 90.1608C176.076 91.7446 176.653 93.8484 178.337 94.626L183.993 97.238" stroke="#404040" stroke-width="8" stroke-linecap="round" stroke-linejoin="round"/>
<path d="M170.686 109.948C175.034 114.916 189.318 117.4 197.391 109.948" stroke="#404040" stroke-width="8" stroke-linecap="round" stroke-linejoin="round"/>
<path d="M241.86 81.7986C246.024 75.1336 239.452 64.5843 228.778 68.9133L226.478 101.543C240.196 101.35 236.003 91.1745 241.86 81.7986Z" fill="#FFD6C4"/>
<path d="M124.936 81.7049C120.745 74.9723 127.583 64.5251 138.464 69.0247L140.473 101.698C126.433 101.286 130.832 91.1757 124.936 81.7049Z" fill="#FFD6C4"/>
<rect width="7.79145" height="11.8415" rx="3.89573" transform="matrix(0.982591 0.185783 -0.216777 0.976221 163.567 63)" fill="#404040"/>
<rect width="7.79145" height="11.8415" rx="3.89573" transform="matrix(0.982591 0.185783 -0.216777 0.976221 201.963 62.1272)" fill="#404040"/>
<path d="M147.494 14.3552C133.243 27.8144 133.172 60.8922 135.163 75.0782C135.377 76.6001 136.704 77.693 138.239 77.6972C139.68 77.7012 140.94 76.7417 141.318 75.3534L150.666 40.9792C152.808 33.1044 160.868 28.428 168.795 30.462L186.085 34.8992C186.247 34.9406 186.416 34.9411 186.578 34.9005L202.261 30.9559C210.777 28.814 219.341 34.4331 220.79 43.1135L226.024 74.4614C226.299 76.1084 227.726 77.3206 229.394 77.3251C230.73 77.3288 231.949 76.5551 232.445 75.3178C239.475 57.7935 236.896 36.4879 234.632 29.5035C221.806 -10.2916 166.516 -3.60893 147.494 14.3552Z" fill="#9D9D9D"/>
<path d="M283.75 255L280 297H300.25L304 255H283.75Z" fill="#404040"/>
<path d="M298.843 281.598H297.989C281.832 281.598 268.385 294.007 267.089 310.112L265.401 331.086C265.16 334.085 265.51 337.103 266.43 339.968L270.625 353.018H315.961L319.779 304.236C320.734 292.03 311.087 281.598 298.843 281.598Z" fill="#FCDBCD"/>
<path d="M265.657 323.829C265.036 308.303 282.301 297.745 294.225 297.745" stroke="#404040" stroke-width="8" stroke-linecap="round" stroke-linejoin="round"/>
<path d="M266.899 343.081C262.552 326.313 279.817 312.65 291.741 312.65" stroke="#404040" stroke-width="8" stroke-linecap="round" stroke-linejoin="round"/>
<path d="M271.246 352.397C269.383 337.492 278.574 328.797 290.498 328.797" stroke="#404040" stroke-width="8" stroke-linecap="round" stroke-linejoin="round"/>
<path d="M284.288 353.018L285.53 345.566C289.008 347.056 297.744 345.773 301.677 344.945L300.435 353.018H284.288Z" fill="#404040"/>
<rect width="69.881" height="48.6129" rx="5" transform="matrix(1 0 -0.0579125 0.998322 261.964 207.55)" fill="#212121"/>
<circle cx="12.1532" cy="12.1532" r="12.1532" transform="matrix(1 0 -0.0579125 0.998322 283.959 221.199)" fill="#6E6E6E"/>
<circle cx="6.09574" cy="6.09574" r="6.09574" transform="matrix(-1 0 -0.0579125 0.998322 325.416 213.616)" fill="#FF335F"/>
<rect width="21.2681" height="6.07661" rx="1" transform="matrix(1 0 -0.0579125 0.998322 277.419 203)" fill="#202020"/>
</svg>
