<svg width="680" height="340" viewBox="0 0 680 340" fill="none" xmlns="http://www.w3.org/2000/svg">
<g opacity="0.7">
<path fill-rule="evenodd" clip-rule="evenodd" d="M257.808 80.3286C254.635 72.3618 246.737 67.3044 238.173 67.7566L37.5655 78.351C22.5841 79.1421 10.6793 91.2289 10.1154 106.221L5.98515 216.029C5.44876 230.29 16.9388 242.106 31.2089 241.968L311.099 239.265C324.336 239.137 335 228.37 335 215.131V215.131V183.311C335 177.457 331.583 172.141 326.256 169.71L291.573 153.883C288.068 152.284 285.315 149.393 283.89 145.814L257.808 80.3286Z" fill="url(#paint0_linear_8_661)"/>
<ellipse cx="85.6531" cy="238.758" rx="35.1359" ry="34.2424" fill="#171717"/>
<ellipse cx="263.17" cy="238.758" rx="35.1359" ry="34.2424" fill="#171717"/>
<path d="M213.329 109.53C213.072 107.809 214.328 106.232 216.063 106.096L248.858 103.54C250.16 103.438 251.379 104.191 251.87 105.402L271.451 153.612C272.212 155.484 270.941 157.558 268.927 157.73L223.943 161.579C222.365 161.714 220.954 160.599 220.72 159.033L213.329 109.53Z" fill="white"/>
<path d="M53.931 109.083L188.681 99.0079L195.034 164.497L59.7155 174.572L53.931 109.083Z" fill="#C71039"/>
<path d="M33.4482 119.123L59.6207 172.354" stroke="#171717" stroke-width="8" stroke-linecap="round"/>
<path d="M164.31 109.142L190.483 162.373" stroke="#171717" stroke-width="8" stroke-linecap="round"/>
<path d="M178.997 91.0734L33.0376 102.54C28.7074 102.88 25.2507 106.288 24.8488 110.613L24.0903 118.776C23.37 126.527 33.7576 129.745 37.5457 122.944L38.1354 121.886C40.5008 117.639 46.5313 117.423 49.1933 121.491C51.7296 125.367 57.3987 125.396 59.9754 121.548L62.111 118.358C64.8024 114.338 70.7 114.299 73.4445 118.283C76.1226 122.17 81.8381 122.247 84.62 118.433L85.5633 117.14C88.3564 113.311 93.8509 112.743 97.3677 115.921L98.5788 117.015C102.551 120.604 108.738 120.046 112.004 115.804C115.414 111.375 121.958 110.997 125.855 115.004L127.126 116.311C130.792 120.081 137.01 119.468 139.871 115.056C142.519 110.971 148.126 110.084 151.906 113.153L154.136 114.963C157.768 117.912 163.083 117.455 166.159 113.93L166.853 113.135C169.616 109.969 174.419 109.633 177.595 112.384C182.748 116.845 190.72 112.826 190.197 106.03L189.754 100.277C189.329 94.7633 184.511 90.6403 178.997 91.0734Z" fill="white"/>
<ellipse cx="317.362" cy="183.999" rx="11.9483" ry="11.6444" fill="white"/>
</g>
<g opacity="0.1">
<path fill-rule="evenodd" clip-rule="evenodd" d="M597.808 80.3286C594.635 72.3618 586.737 67.3044 578.173 67.7566L377.566 78.351C362.584 79.1421 350.679 91.2289 350.115 106.221L345.985 216.029C345.449 230.29 356.939 242.106 371.209 241.968L651.099 239.265C664.336 239.137 675 228.37 675 215.131V215.131V183.311C675 177.457 671.583 172.141 666.256 169.71L631.573 153.883C628.068 152.284 625.315 149.393 623.89 145.814L597.808 80.3286Z" fill="url(#paint1_linear_8_661)"/>
<ellipse cx="425.653" cy="238.758" rx="35.1359" ry="34.2424" fill="#171717"/>
<ellipse cx="603.17" cy="238.758" rx="35.1359" ry="34.2424" fill="#171717"/>
<path d="M553.329 109.53C553.072 107.809 554.328 106.232 556.063 106.096L588.858 103.54C590.16 103.438 591.379 104.191 591.87 105.402L611.451 153.612C612.212 155.484 610.941 157.558 608.927 157.73L563.943 161.579C562.365 161.714 560.954 160.599 560.72 159.033L553.329 109.53Z" fill="white"/>
<path d="M393.931 109.083L528.681 99.0079L535.034 164.497L399.716 174.572L393.931 109.083Z" fill="#C71039"/>
<path d="M373.448 119.123L399.621 172.354" stroke="#171717" stroke-width="8" stroke-linecap="round"/>
<path d="M504.31 109.142L530.483 162.373" stroke="#171717" stroke-width="8" stroke-linecap="round"/>
<path d="M518.997 91.0734L373.038 102.54C368.707 102.88 365.251 106.288 364.849 110.613L364.09 118.776C363.37 126.527 373.758 129.745 377.546 122.944L378.135 121.886C380.501 117.639 386.531 117.423 389.193 121.491C391.73 125.367 397.399 125.396 399.975 121.548L402.111 118.358C404.802 114.338 410.7 114.299 413.444 118.283C416.123 122.17 421.838 122.247 424.62 118.433L425.563 117.14C428.356 113.311 433.851 112.743 437.368 115.921L438.579 117.015C442.551 120.604 448.738 120.046 452.004 115.804C455.414 111.375 461.958 110.997 465.855 115.004L467.126 116.311C470.792 120.081 477.01 119.468 479.871 115.056C482.519 110.971 488.126 110.084 491.906 113.153L494.136 114.963C497.768 117.912 503.083 117.455 506.159 113.93L506.853 113.135C509.616 109.969 514.419 109.633 517.595 112.384C522.748 116.845 530.72 112.826 530.197 106.03L529.754 100.277C529.329 94.7633 524.511 90.6403 518.997 91.0734Z" fill="white"/>
<ellipse cx="657.362" cy="183.999" rx="11.9483" ry="11.6444" fill="white"/>
</g>
<defs>
<linearGradient id="paint0_linear_8_661" x1="170.764" y1="78.0899" x2="174.362" y2="313.199" gradientUnits="userSpaceOnUse">
<stop offset="0.491" stop-color="#FE3360"/>
<stop offset="1" stop-color="#DEDEFF"/>
</linearGradient>
<linearGradient id="paint1_linear_8_661" x1="510.764" y1="78.0899" x2="514.362" y2="313.199" gradientUnits="userSpaceOnUse">
<stop offset="0.491" stop-color="#FE3360"/>
<stop offset="1" stop-color="#DEDEFF"/>
</linearGradient>
</defs>
</svg>
