<svg width="40" height="21" viewBox="0 0 40 21" fill="none" xmlns="http://www.w3.org/2000/svg">
<path fill-rule="evenodd" clip-rule="evenodd" d="M19.4364 10.5664C19.8637 11.3768 20.1056 12.3001 20.1056 13.2798C20.1056 16.4973 17.4973 19.1056 14.2798 19.1056H8.82582C5.60831 19.1056 3 16.4973 3 13.2798C3 10.6783 4.70514 8.47512 7.05876 7.72682C7.12313 4.55303 9.71605 2 12.9053 2H14.2578C17.4874 2 20.1055 4.61812 20.1055 7.84773C20.1055 8.82921 19.8637 9.75421 19.4364 10.5664Z" fill="white"/>
<path d="M8.42617 13.5087L10.2044 10.6609C10.2816 10.5373 10.4716 10.5833 10.4837 10.7285L10.7622 14.0743C10.8237 14.8126 10.2411 15.4457 9.50028 15.4457C8.50589 15.4457 7.89949 14.3521 8.42617 13.5087Z" fill="#9AC9D3"/>
<path d="M12.7226 13.5087L14.5008 10.6609C14.578 10.5373 14.768 10.5833 14.7801 10.7285L15.0586 14.0743C15.1201 14.8126 14.5375 15.4457 13.7967 15.4457C12.8023 15.4457 12.1959 14.3521 12.7226 13.5087Z" fill="#9AC9D3"/>
<path d="M11.7678 8.019L13.5461 5.17117C13.6233 5.04765 13.8133 5.09366 13.8253 5.23878L14.1039 8.58464C14.1654 9.3229 13.5828 9.95604 12.842 9.95604C11.8476 9.95604 11.2412 8.86245 11.7678 8.019Z" fill="#9AC9D3"/>
<path fill-rule="evenodd" clip-rule="evenodd" d="M36.4523 11.0111C36.802 11.6744 37 12.43 37 13.2319C37 15.8653 34.8652 18 32.2319 18H27.7681C25.1348 18 23 15.8653 23 13.2319C23 11.1028 24.3956 9.29955 26.3218 8.6871C26.3745 6.08952 28.4967 4 31.1069 4H32.2139C34.8571 4 36.9999 6.14279 36.9999 8.78605C36.9999 9.58932 36.802 10.3464 36.4523 11.0111Z" fill="white"/>
<path d="M27.441 13.4192L28.8964 11.0884C28.9596 10.9873 29.1151 11.025 29.125 11.1438L29.3529 13.8822C29.4033 14.4864 28.9264 15.0046 28.3201 15.0046C27.5063 15.0046 27.0099 14.1096 27.441 13.4192Z" fill="#9AC9D3"/>
<path d="M30.9574 13.4192L32.4128 11.0884C32.4759 10.9873 32.6314 11.025 32.6413 11.1438L32.8693 13.8822C32.9196 14.4864 32.4428 15.0046 31.8365 15.0046C31.0226 15.0046 30.5263 14.1096 30.9574 13.4192Z" fill="#9AC9D3"/>
<path d="M30.176 8.92622L31.6314 6.59543C31.6945 6.49433 31.8501 6.53199 31.8599 6.65076L32.0879 9.38917C32.1382 9.9934 31.6614 10.5116 31.0551 10.5116C30.2412 10.5116 29.7449 9.61654 30.176 8.92622Z" fill="#9AC9D3"/>
</svg>
