<svg width="1265" height="1819" viewBox="0 0 1265 1819" fill="none" xmlns="http://www.w3.org/2000/svg">
<rect width="1265" height="1819" fill="#EEDE9D"/>
<path d="M261 1553C198.2 1543.4 189.5 1452.67 193 1408.5V1384.75C193 1382.83 194.782 1381.4 196.657 1381.82L238.962 1391.32C240.621 1391.69 241.637 1393.36 241.247 1395.02C234.037 1425.65 232.979 1483.49 282.5 1492C346.5 1503 565.5 1482 594 1426C616.8 1381.2 589.167 1372 572.5 1373H255.511C254.294 1373 253.198 1372.27 252.736 1371.14L175.669 1183.63C175.256 1182.62 175.402 1181.5 176.075 1180.64C224.941 1118.56 288.243 998.338 158 1003.5C26.9252 1008.7 88.8814 848.639 136.364 767.732C136.457 767.574 136.56 767.43 136.68 767.292L201.171 692.88C201.389 692.628 201.563 692.342 201.687 692.034L264.163 536.583C264.659 535.348 265.865 534.586 267.191 534.695C318.48 538.908 432.046 523.968 449 473.5C466.2 422.3 431.5 413.833 412 416H258C213.627 416 203.525 394.091 203.984 382.823C203.993 382.604 204.027 382.404 204.087 382.194C216.134 340.047 243.635 246.807 258 208.5C272.281 170.416 300.858 166.234 313.684 168.931C313.899 168.977 314.099 169 314.319 169H570C667.5 169 558 299 519.5 402.5C488.7 485.3 520.333 509 540 510.5C692.333 509 1023.3 506.9 1128.5 510.5C1260 515 1229.5 1045 1188 1134C1146.5 1223 986.5 1166 838 1259C726.166 1329.04 823.555 1341.36 876.654 1338.67C879.571 1338.52 881.108 1342.23 878.898 1344.14L846.56 1372.08C845.888 1372.66 845.049 1372.92 844.17 1372.79C805.777 1367.11 684.488 1372.17 675 1437C665.93 1498.98 648.112 1526.86 639.004 1534.39C638.116 1535.12 637.579 1536.17 637.749 1537.31C649.483 1615.95 790.152 1770.88 854.961 1812.63C857.627 1814.35 856.365 1819 853.194 1819H621.896C621.011 1819 620.192 1818.64 619.629 1817.96C570.272 1758.16 520.943 1598.32 518.582 1560.68C518.473 1558.96 517.089 1557.56 515.359 1557.63C454.215 1560.09 322.721 1562.44 261 1553Z" fill="#F8EEC7"/>
<path d="M498.288 1203.42C499.348 1197.82 495.417 1189.64 493.982 1184.5L493.505 1182.61C493.058 1180.84 494.344 1179.06 496.076 1179.65C502.56 1181.86 507.233 1191.72 507.894 1197.12H526.058C527.291 1197.12 528.398 1196.36 528.849 1195.22L532.529 1185.88C532.855 1185.05 533.655 1184.5 534.546 1184.5H534.786C535.851 1184.5 536.713 1185.37 536.713 1186.43C536.713 1187.5 537.576 1188.36 538.64 1188.36H539.093C540.157 1188.36 541.02 1187.5 541.02 1186.43V1186.36C541.02 1185.33 541.85 1184.5 542.875 1184.5C543.73 1184.5 544.479 1185.09 544.661 1185.93C546.808 1195.81 544.995 1200.57 544.995 1206.93C544.995 1210.83 545.826 1215.73 546.575 1219.22C546.915 1220.81 545.723 1222.34 544.1 1222.34H543.996C542.174 1222.34 540.51 1221.31 539.706 1219.67L539.463 1219.18C539.08 1218.4 537.9 1218.82 538.092 1219.66C538.404 1221.04 537.36 1222.34 535.951 1222.34H535.782C533.384 1222.34 531.27 1220.77 530.576 1218.48L529.095 1213.58H513.693C512.251 1213.58 511.013 1214.61 510.745 1216.03L510.252 1218.63C509.845 1220.78 507.965 1222.34 505.774 1222.34H505.698C504.065 1222.34 502.814 1220.89 503.059 1219.27C503.211 1218.27 501.829 1217.84 501.38 1218.75L500.437 1220.67C499.933 1221.69 498.889 1222.34 497.745 1222.34H496.903C494.832 1222.34 493.376 1220.29 494.029 1218.33C495.496 1213.91 497.532 1207.42 498.288 1203.42Z" fill="white"/>
<path d="M526.642 1196.77C529.679 1199.69 537.994 1204.19 546.963 1198.87" stroke="#FF335F" stroke-width="5" stroke-linecap="round"/>
<path d="M474.555 1140.13C480.448 1150.99 513.704 1191.35 527.03 1196.68" stroke="#FF335F" stroke-width="5" stroke-linecap="round"/>
<path d="M418.816 1151.09C426.976 1153.61 422.191 1160.14 414.796 1157.53C413.574 1157.1 410.568 1155.97 408.706 1155.06C408.455 1154.94 408.965 1155.19 408.706 1155.06C410.881 1163.86 411.142 1186.67 398.265 1204.07L410.881 1210.6C415.953 1203.2 425.587 1185.37 425.742 1170.51C425.751 1169.68 426.79 1169.26 427.311 1169.91C433.497 1177.56 443.775 1193.75 445.682 1210.6L458.733 1206.25C453.947 1190.59 442.898 1157.53 436.982 1150.57L418.816 1151.09Z" fill="#404040"/>
<path d="M458.733 1206.25L445.682 1210.6L448.118 1223.18C448.212 1223.67 448.699 1223.98 449.183 1223.86L471.888 1218.19C472.696 1217.98 472.785 1216.87 472.019 1216.54L462.481 1212.45C462.307 1212.38 462.162 1212.25 462.068 1212.09L458.733 1206.25Z" fill="white"/>
<path d="M410.881 1210.6L398.265 1204.07L390.523 1216.71C390.247 1217.16 390.434 1217.75 390.919 1217.96L411.008 1226.68C411.735 1226.99 412.471 1226.25 412.149 1225.52L408.017 1216.23C407.903 1215.97 407.919 1215.68 408.06 1215.43L410.881 1210.6Z" fill="white"/>
<path d="M422.191 1109.76C426.104 1109.71 430.085 1109.71 433.502 1109.78C449.597 1097.28 442.276 1085.75 439.23 1083.14C434.358 1092.54 421.901 1094.96 417.406 1093.9C415.786 1101.61 419.662 1107.52 422.191 1109.76Z" fill="#FFD6C4"/>
<path d="M439.23 1083.14C437.249 1081.44 424.366 1077.48 418.816 1089.66C418.149 1091.13 417.692 1092.54 417.406 1093.9C421.901 1094.96 434.358 1092.54 439.23 1083.14Z" fill="#404040"/>
<path d="M470.478 1134.47C460.386 1132.38 452.642 1125.48 450.032 1122.29L443.942 1129.69C447.422 1134.91 460.908 1141.43 468.738 1143.61C476.568 1145.78 483.093 1137.08 470.478 1134.47Z" fill="#FFD6C4"/>
<path d="M443.942 1129.69L450.032 1122.29C446.117 1117.51 445.247 1110.63 440.027 1110.11C438.359 1109.94 436.092 1109.84 433.502 1109.78C430.085 1109.71 426.104 1109.71 422.191 1109.76C416.687 1109.83 419.146 1109.98 415.666 1110.11C412.621 1109.82 404.269 1111.33 402.18 1123.16L411.316 1128.82C409.866 1133.17 403.486 1145.69 417.406 1150.57C417.903 1150.74 418.373 1150.92 418.816 1151.09L436.982 1150.57L439.23 1129.69L441.946 1130.92C442.352 1131.1 442.831 1130.99 443.12 1130.65L443.942 1129.69Z" fill="#FF335F"/>
<path fill-rule="evenodd" clip-rule="evenodd" d="M462.481 1212.45C462.307 1212.38 462.162 1212.25 462.068 1212.09C462.162 1212.25 462.307 1212.38 462.481 1212.45ZM427.311 1169.91C426.79 1169.26 425.751 1169.68 425.742 1170.51C425.751 1169.68 426.789 1169.26 427.311 1169.91ZM408.017 1216.23C407.903 1215.97 407.919 1215.68 408.06 1215.43C407.919 1215.68 407.903 1215.97 408.017 1216.23Z" fill="#D9D9D9"/>
<path d="M411.316 1128.82L402.18 1123.16C394.34 1144.64 400.781 1151.15 408.706 1155.06C408.455 1154.94 408.965 1155.19 408.706 1155.06C410.568 1155.97 413.574 1157.1 414.796 1157.53C422.191 1160.14 426.976 1153.61 418.816 1151.09C418.373 1150.92 417.903 1150.74 417.406 1150.57C403.486 1145.69 409.866 1133.17 411.316 1128.82Z" fill="#FFD6C4"/>
<path d="M306.5 770H204H191.5L267.5 609H372L306.5 770Z" fill="white"/>
<path d="M45.5 872.5H392.5C411 872.5 427.5 880.534 427.5 911.5C427.5 945 399.5 934.5 399 973C398.662 999 378 1013 364 1014" stroke="white" stroke-width="6" stroke-linecap="round" stroke-linejoin="round"/>
<path d="M51.5003 854.003L400.274 854.003C430 854.003 448.5 874.685 448.5 908.504C448.5 959 417.993 938 417.373 985.67C416.827 1027.72 373.196 1034.45 354.083 1035" stroke="white" stroke-width="6" stroke-linecap="round" stroke-linejoin="round"/>
<path d="M60 837L405.446 837C441.5 837 466.5 864.864 466.5 905.521C466.5 972.5 433.548 940.978 433.548 998.291C433.548 1046 373.734 1051.34 353.5 1052" stroke="#FF335F" stroke-width="6" stroke-linecap="round" stroke-linejoin="round"/>
<path d="M192.161 796.977C193.863 792.194 198.39 789 203.467 789H404L354.695 927.548C354.235 928.84 354 930.201 354 931.572V1055H157C150.373 1055 145 1049.63 145 1043V931.572C145 930.201 145.235 928.84 145.695 927.548L192.161 796.977Z" fill="#404040"/>
<path d="M404 789L354.695 927.548C354.235 928.84 354 930.201 354 931.572V1055L403.148 931.639C403.711 930.226 404 928.719 404 927.198V789Z" fill="#262323"/>
<circle cx="199.5" cy="1042.5" r="7.5" fill="white"/>
<circle cx="299.5" cy="1042.5" r="7.5" fill="white"/>
<circle cx="199.5" cy="1022.5" r="7.5" fill="white"/>
<circle cx="299.5" cy="1022.5" r="7.5" fill="white"/>
<circle cx="199.5" cy="1002.5" r="7.5" fill="white"/>
<circle cx="299.5" cy="1002.5" r="7.5" fill="white"/>
<circle cx="199.5" cy="982.5" r="7.5" fill="white"/>
<circle cx="299.5" cy="982.5" r="7.5" fill="white"/>
<circle cx="199.5" cy="962.5" r="7.5" fill="white"/>
<circle cx="219.5" cy="962.5" r="7.5" fill="white"/>
<circle cx="239.5" cy="962.5" r="7.5" fill="white"/>
<circle cx="259.5" cy="962.5" r="7.5" fill="white"/>
<circle cx="279.5" cy="962.5" r="7.5" fill="white"/>
<circle cx="299.5" cy="962.5" r="7.5" fill="white"/>
<path d="M149.5 931.5H349.5" stroke="white" stroke-width="5" stroke-linecap="round"/>
<ellipse cx="246.878" cy="888.914" rx="22.4794" ry="12.5884" transform="rotate(-12.2555 246.878 888.914)" fill="#FF335F"/>
<path d="M276.923 814.983C276.97 814.563 277.272 814.214 277.689 814.148C283.652 813.198 295.434 816.671 299.93 829.119C305.676 845.032 319.679 839.216 322.712 860.805C322.796 861.397 322.333 861.939 321.734 861.939H306.504C306.07 861.939 305.686 861.658 305.548 861.246C304.275 857.452 301.676 851.624 292.287 847.103C280.148 841.258 287.525 826.152 275.519 827.636L276.923 814.983Z" fill="#FF335F"/>
<path d="M267.56 884.868L275.519 827.636M275.519 827.636L276.923 814.983C276.97 814.563 277.272 814.214 277.689 814.148C283.652 813.198 295.434 816.671 299.93 829.119C305.676 845.032 319.679 839.216 322.712 860.805C322.796 861.397 322.333 861.939 321.734 861.939H306.504C306.07 861.939 305.686 861.658 305.548 861.246C304.275 857.452 301.676 851.624 292.287 847.103C280.148 841.258 287.525 826.152 275.519 827.636Z" stroke="#FF335F" stroke-width="5"/>
<path fill-rule="evenodd" clip-rule="evenodd" d="M118.819 1400.99C118.819 1404.86 121.953 1407.99 125.819 1407.99H338.681V1273.81C338.681 1273.4 338.717 1272.99 338.789 1272.59L358.681 1160.4H144.687C141.292 1160.4 138.387 1162.84 137.794 1166.18L118.926 1272.59C118.855 1272.99 118.819 1273.4 118.819 1273.81V1400.99Z" fill="#16615D"/>
<path d="M338.789 1272.59C338.717 1272.99 338.681 1273.4 338.681 1273.81V1407.99L358.573 1296.11C358.645 1295.7 358.681 1295.29 358.681 1294.88V1160.4L338.789 1272.59Z" fill="#164341"/>
<path d="M183 1408V1303H269V1408H183Z" fill="#404040"/>
<path d="M124.529 1273.38H332.563" stroke="white" stroke-width="5" stroke-linecap="round" stroke-linejoin="round"/>
<path d="M183 1412.1V1303L154 1322.23V1432L183 1412.1Z" fill="#16615D" stroke="white" stroke-width="5" stroke-linecap="round" stroke-linejoin="round"/>
<path d="M269 1412.1V1303L298 1322.23V1432L269 1412.1Z" fill="#16615D" stroke="white" stroke-width="5" stroke-linecap="round" stroke-linejoin="round"/>
<path d="M242.897 1174.6L227.481 1194.21L248.014 1192.19L262.684 1172.66L242.897 1174.6Z" fill="white"/>
<path d="M200.711 1178.74L182.681 1198.6L203.961 1196.51L221.618 1176.69L200.711 1178.74Z" fill="white"/>
<path d="M292.067 1187.88L290.408 1170.95C290.354 1170.4 289.865 1170 289.315 1170.05L285.084 1170.47L271.534 1189.89L292.067 1187.88Z" fill="white"/>
<path d="M174.615 1162.45L200.215 1173.67L221.325 1166.01L195.741 1154.95L174.615 1162.45Z" fill="white"/>
<path d="M217.269 1147.7L243.198 1158.44L265.381 1150.19L240.562 1139.24L217.269 1147.7Z" fill="white"/>
<path d="M286.57 1142.32C287.11 1142.12 287.374 1141.51 287.147 1140.98L280.617 1125.82C280.408 1125.34 279.86 1125.1 279.364 1125.27L261.488 1131.62L285.018 1142.88L286.57 1142.32Z" fill="white"/>
<path d="M174.615 1162.45L180.925 1180.68L200.215 1173.67L174.615 1162.45Z" fill="#404040"/>
<path d="M195.741 1154.95L221.325 1166.01L243.198 1158.44L217.269 1147.7L195.741 1154.95Z" fill="#404040"/>
<path d="M240.562 1139.24L265.381 1150.19L285.018 1142.88L261.488 1131.62L240.562 1139.24Z" fill="#404040"/>
<path d="M188.035 1253.23C188.089 1253.78 188.579 1254.18 189.128 1254.13L296.523 1243.6C297.073 1243.55 297.475 1243.06 297.421 1242.51L292.067 1187.88L271.534 1189.89L248.014 1192.19L227.481 1194.21L203.961 1196.51L182.681 1198.6L188.035 1253.23Z" fill="#404040"/>
<path d="M248.014 1192.19L271.534 1189.89L285.084 1170.47L262.684 1172.66L248.014 1192.19Z" fill="#404040"/>
<path d="M221.618 1176.69L203.961 1196.51L227.481 1194.21L242.897 1174.6L221.618 1176.69Z" fill="#404040"/>
<path d="M180.925 1180.68L182.681 1198.6L200.711 1178.74L180.925 1180.68Z" fill="#404040"/>
<path d="M174.615 1162.45L180.925 1180.68M174.615 1162.45L200.215 1173.67M174.615 1162.45L195.741 1154.95M180.925 1180.68L182.681 1198.6M180.925 1180.68L200.711 1178.74M180.925 1180.68L200.215 1173.67M182.681 1198.6L188.035 1253.23C188.089 1253.78 188.579 1254.18 189.128 1254.13L296.523 1243.6C297.073 1243.55 297.475 1243.06 297.421 1242.51L292.067 1187.88M182.681 1198.6L200.711 1178.74M182.681 1198.6L203.961 1196.51M292.067 1187.88L290.408 1170.95C290.354 1170.4 289.865 1170 289.315 1170.05L285.084 1170.47M292.067 1187.88L248.014 1192.19M292.067 1187.88L271.534 1189.89M200.711 1178.74L221.618 1176.69M203.961 1196.51L221.618 1176.69M203.961 1196.51L227.481 1194.21M221.618 1176.69L242.897 1174.6M227.481 1194.21L242.897 1174.6M227.481 1194.21L248.014 1192.19M242.897 1174.6L262.684 1172.66M248.014 1192.19L262.684 1172.66M248.014 1192.19L271.534 1189.89M262.684 1172.66L285.084 1170.47M271.534 1189.89L285.084 1170.47M200.215 1173.67L221.325 1166.01M195.741 1154.95L221.325 1166.01M195.741 1154.95L217.269 1147.7M221.325 1166.01L243.198 1158.44M217.269 1147.7L243.198 1158.44M217.269 1147.7L240.562 1139.24M243.198 1158.44L265.381 1150.19M240.562 1139.24L265.381 1150.19M240.562 1139.24L261.488 1131.62M265.381 1150.19L285.018 1142.88M261.488 1131.62L279.364 1125.27C279.86 1125.1 280.408 1125.34 280.617 1125.82L287.147 1140.98C287.374 1141.51 287.11 1142.12 286.57 1142.32L285.018 1142.88M261.488 1131.62L285.018 1142.88" stroke="white" stroke-width="5" stroke-linecap="round"/>
<rect x="193.446" y="1206.93" width="50.7163" height="14.7567" rx="1" transform="rotate(-5.59773 193.446 1206.93)" fill="white"/>
<path fill-rule="evenodd" clip-rule="evenodd" d="M794 814H938.853V750.774C938.853 750.592 938.878 750.411 938.927 750.236L988.853 571.576C968.207 557.062 928.267 527.844 921.03 495.318C920.573 493.261 917.201 492.667 916.231 494.537C903.85 518.406 876.822 553.042 842.765 571.173C842.277 571.433 841.916 571.878 841.767 572.411L792.074 750.236C792.025 750.411 792 750.592 792 750.774V812C792 813.105 792.895 814 794 814Z" fill="#E7F4F3"/>
<path d="M938.927 750.236C938.878 750.411 938.853 750.592 938.853 750.774V814L988.778 636.265C988.828 636.089 988.853 635.907 988.853 635.724V571.576L938.927 750.236Z" fill="#B0D0CE"/>
<path d="M864.927 745.733C862.177 775.5 847.833 802.454 839.952 811.667H890.568C872.677 802.5 864.816 767.711 864.927 745.733Z" fill="#404040" stroke="#404040" stroke-width="5" stroke-linecap="round" stroke-linejoin="round"/>
<path d="M918.5 495.5L867.177 683M867.177 683C861.177 703.5 845.792 747.2 794.91 750.397M867.177 683C861.323 703 889.389 747.733 934.677 750.397M829.677 645.5C840.999 640.949 866.173 625.72 876.297 601.211" stroke="#404040" stroke-width="5" stroke-linecap="round" stroke-linejoin="round"/>
<path d="M845.177 612.949C857.054 607.399 881.54 589.439 884.471 562" stroke="#404040" stroke-width="5" stroke-linecap="round" stroke-linejoin="round"/>
<path d="M892.177 663C895.507 676.209 908.76 704.292 935.134 710.952" stroke="#404040" stroke-width="5" stroke-linecap="round" stroke-linejoin="round"/>
<path d="M513.478 993.962V1043.07C513.478 1092.73 540.658 1138.42 584.306 1162.11C604.143 1172.88 626.356 1178.52 648.927 1178.52H689.309C712.443 1178.52 735.096 1171.92 754.609 1159.49C789.651 1137.17 810.869 1098.51 810.869 1056.96V981.165C810.869 946.88 797.84 913.876 774.42 888.836C748.862 861.51 713.119 846 675.703 846H661.44C625.036 846 589.91 859.42 562.78 883.694C531.409 911.763 513.478 951.866 513.478 993.962Z" fill="#FF335F"/>
<path d="M515.884 991.167L515.803 994.244C514.425 1046.25 547.501 1092.93 597.02 1108.88V1108.88C608.624 1112.61 620.741 1114.52 632.932 1114.52H705.9C718.351 1114.52 730.7 1112.26 742.347 1107.86V1107.86C783.381 1092.36 810.121 1052.6 809.004 1008.76L808.462 987.477" stroke="#404040" stroke-width="5" stroke-linecap="round" stroke-linejoin="round"/>
<rect x="645.331" y="1136.65" width="42.3468" height="42.3468" rx="2" fill="#404040"/>
<path d="M641 991.808C647.577 985.713 665.927 977.179 686.715 991.808" stroke="white" stroke-width="6" stroke-linecap="round" stroke-linejoin="round"/>
<path d="M630.895 972.559C640.309 963.844 666.579 951.643 696.34 972.559" stroke="white" stroke-width="6" stroke-linecap="round" stroke-linejoin="round"/>
<path d="M623.195 953.311C634.964 942.417 667.801 927.165 705.001 953.311" stroke="white" stroke-width="6" stroke-linecap="round" stroke-linejoin="round"/>
<circle cx="664.098" cy="1013.46" r="10.1055" fill="white"/>
<path d="M859 1100C859 1097.24 861.239 1095 864 1095H1113C1115.76 1095 1118 1097.24 1118 1100V1216H859V1100Z" fill="#FF335F"/>
<path d="M859 1216H1118L1068 1310H809L859 1216Z" fill="white"/>
<path d="M809 1310H1068V1342H814C811.239 1342 809 1339.76 809 1337V1310Z" fill="#404040"/>
<path d="M1118 1215.5L1068 1310V1342L1117.42 1248.6C1117.8 1247.88 1118 1247.07 1118 1246.26V1215.5Z" fill="#404040"/>
<path d="M897 1175H857.019C855.162 1175 853.459 1176.03 852.594 1177.67L845.266 1191.59C844.434 1193.17 844 1194.93 844 1196.72V1258C844 1259.1 844.895 1260 846 1260H889L898.77 1241.44C898.921 1241.15 899 1240.83 899 1240.51V1177C899 1175.9 898.105 1175 897 1175Z" fill="#C5C5C5"/>
<path d="M889 1257V1194M889 1194L896.5 1178.5M889 1194H846" stroke="#404040" stroke-width="5" stroke-linecap="round" stroke-linejoin="round"/>
<rect x="858.5" y="1233.5" width="16" height="16" rx="8" stroke="#404040" stroke-width="5"/>
<rect x="858.5" y="1206.5" width="16" height="16" rx="8" stroke="#404040" stroke-width="5"/>
<path d="M1091 1175H1051.02C1049.16 1175 1047.46 1176.03 1046.59 1177.67L1039.27 1191.59C1038.43 1193.17 1038 1194.93 1038 1196.72V1258C1038 1259.1 1038.9 1260 1040 1260H1083L1092.77 1241.44C1092.92 1241.15 1093 1240.83 1093 1240.51V1177C1093 1175.9 1092.1 1175 1091 1175Z" fill="#C5C5C5"/>
<path d="M1083 1257V1194M1083 1194L1090.5 1178.5M1083 1194H1040" stroke="#404040" stroke-width="5" stroke-linecap="round" stroke-linejoin="round"/>
<rect x="1052.5" y="1233.5" width="16" height="16" rx="8" stroke="#404040" stroke-width="5"/>
<rect x="1052.5" y="1206.5" width="16" height="16" rx="8" stroke="#404040" stroke-width="5"/>
<path d="M986.5 995.5V1056L1020 1037.5V980L986.5 995.5Z" fill="#798B89"/>
<path fill-rule="evenodd" clip-rule="evenodd" d="M857 1056V995.5L877.5 949H1003.5L986.5 995.5V1056H857Z" fill="#ABB8B5"/>
<path d="M1003.5 949L986.5 995.5L1020 980L1003.5 949Z" fill="#798B89"/>
<path d="M859 996.5L876.5 996.378L898.5 996.222L920.5 996.073L943.5 995.924L966 995.771L969.25 995.635L986.5 995.5L1018 981" stroke="#404040" stroke-width="5" stroke-linecap="round" stroke-linejoin="round"/>
<path d="M317.882 176C315.272 176 312.961 177.688 312.167 180.174L300.187 217.674C298.95 221.545 301.839 225.5 305.902 225.5H400.993C403.892 225.5 406.377 223.426 406.896 220.573L413.714 183.073C414.384 179.39 411.554 176 407.811 176H317.882Z" fill="#D9D9D9"/>
<path d="M461 205L469 110L425.5 154.5V220.989C425.5 226.025 431.329 228.82 435.256 225.668L461 205Z" fill="#D9D9D9"/>
<path d="M463.658 231.717C461.997 232.831 461 234.7 461 236.701V257L501.073 227.299C502.6 226.167 503.5 224.379 503.5 222.479V205L463.658 231.717Z" fill="#0D4C49"/>
<path fill-rule="evenodd" clip-rule="evenodd" d="M461 257H273.211C269.149 257 266.26 253.047 267.495 249.177L297.687 154.5H425.5V220.989C425.5 226.025 431.329 228.82 435.256 225.668L461 205H503.5L463.658 231.717C461.997 232.831 461 234.7 461 236.701V257ZM317.882 176C315.272 176 312.961 177.688 312.167 180.174L300.187 217.674C298.95 221.545 301.839 225.5 305.902 225.5H400.993C403.892 225.5 406.377 223.426 406.896 220.573L413.714 183.073C414.384 179.39 411.554 176 407.811 176H317.882Z" fill="#16615D"/>
<path d="M297.687 154.5H425.5L469 110L309.319 129.533C306.992 129.818 305.043 131.432 304.331 133.666L297.687 154.5Z" fill="#327F7B"/>
<circle cx="18.5" cy="18.5" r="18.5" transform="matrix(-1 0 0 1 325 242.5)" fill="#404040"/>
<circle cx="18.5" cy="18.5" r="18.5" transform="matrix(-1 0 0 1 425 242.5)" fill="#404040"/>
<path d="M409.792 264C406.989 264 404.56 265.94 403.94 268.673L395.662 305.173C394.81 308.927 397.664 312.5 401.513 312.5H483.46C486.374 312.5 488.867 310.406 489.37 307.536L495.767 271.036C496.41 267.364 493.585 264 489.857 264H409.792Z" fill="#D9D9D9"/>
<path fill-rule="evenodd" clip-rule="evenodd" d="M361.929 301.754C363.555 300.961 364.737 299.476 365.145 297.713C364.737 299.476 363.555 300.961 361.929 301.754Z" fill="#FF335F"/>
<path fill-rule="evenodd" clip-rule="evenodd" d="M361.929 301.754L327.405 318.584C325.591 319.468 324.344 321.204 324.084 323.205L320.38 351.727C319.913 355.318 322.709 358.5 326.33 358.5H491.843C494.808 358.5 497.329 356.333 497.775 353.401L513.952 246.901C514.503 243.27 511.692 240 508.02 240H393.27C390.478 240 388.054 241.927 387.425 244.647L365.145 297.713C364.737 299.476 363.555 300.961 361.929 301.754ZM401.513 312.5C397.664 312.5 394.81 308.927 395.662 305.173L403.94 268.673C404.56 265.94 406.989 264 409.792 264H489.857C493.585 264 496.41 267.364 495.767 271.036L489.37 307.536C488.867 310.406 486.374 312.5 483.46 312.5H401.513Z" fill="#FF335F"/>
<path d="M513.952 246.901L497.775 353.401L497.629 353.982C496.966 356.637 494.58 358.5 491.843 358.5H512.278C515.272 358.5 517.807 356.293 518.22 353.327L533.049 246.827C533.552 243.22 530.749 240 527.107 240H508.02C511.692 240 514.503 243.27 513.952 246.901Z" fill="#D21E45"/>
<circle cx="364.5" cy="356.5" r="18.5" fill="#404040"/>
<circle cx="336.5" cy="330.5" r="7.5" fill="white"/>
<circle cx="456.5" cy="355.5" r="18.5" fill="#404040"/>
<path fill-rule="evenodd" clip-rule="evenodd" d="M88.8518 782.5C87.0638 782.5 85.6727 780.946 85.8701 779.169L92.5 719.5H204L198 782.5H88.8518Z" fill="#C9DEDC"/>
<path d="M204 719.5L198 782.5L284.78 592.481C284.926 592.163 285.014 591.821 285.042 591.472L290 529L204 719.5Z" fill="#ABB8B5"/>
<path fill-rule="evenodd" clip-rule="evenodd" d="M204 719.5H92.5L185.176 530.678C185.681 529.651 186.725 529 187.869 529H290L204 719.5ZM128.202 696.5C126.009 696.5 124.557 694.225 125.481 692.236L152.58 633.903C152.853 633.317 152.928 632.658 152.796 632.025L149.405 615.823C148.971 613.75 150.765 611.892 152.852 612.253L211.368 622.372C213.242 622.696 214.345 624.66 213.647 626.429L186.749 694.601C186.297 695.747 185.19 696.5 183.959 696.5H128.202Z" fill="#798B89"/>
<path d="M192 439L182 528.185M284.519 532L295 439" stroke="#404040" stroke-width="5" stroke-linecap="round"/>
<path d="M108 627.692L98 714M202.545 714L213 624" stroke="#404040" stroke-width="5" stroke-linecap="round"/>
<path fill-rule="evenodd" clip-rule="evenodd" d="M100 625.5H215.673C216.477 625.5 217.203 625.018 217.516 624.278L230.295 594H114.61L100 625.5ZM131.22 558.5L145.597 527.5H258.67L245.589 558.5H131.22ZM160.508 495.5L175.254 464H287.912L272.325 495.5H160.508Z" fill="#FF335F"/>
<path d="M301.073 437.387C301.73 436.057 300.763 434.5 299.28 434.5H190.275C189.497 434.5 188.79 434.951 188.462 435.655L175.254 464H287.912L301.073 437.387Z" fill="white"/>
<path d="M145.597 527.5H258.67L272.325 495.5H160.508L145.597 527.5Z" fill="white"/>
<path d="M114.61 594H230.295L245.589 558.5H131.22L114.61 594Z" fill="white"/>
<path d="M186.237 625H217C214.598 642.979 188.563 642.989 186.237 625C184.221 641.132 160.746 641.164 159.004 625C157.092 641.429 133.249 641.421 131.267 625C128.987 643.244 102.589 643.202 100 625H131.267H159.004H186.237Z" fill="#FF335F"/>
<path d="M1163.77 1346C1130.08 1346 1130.18 1315.08 1131.34 1297.85C1131.53 1295.03 1134.53 1293.31 1137.07 1294.52L1149.52 1300.43C1150.89 1301.09 1152.52 1300.9 1153.72 1299.96L1161.04 1294.15C1162.61 1292.92 1164.84 1293.02 1166.28 1294.39L1171.85 1299.68C1173.01 1300.78 1174.72 1301.09 1176.19 1300.45L1190.57 1294.24C1193.11 1293.15 1195.99 1294.87 1196.18 1297.63C1197.35 1314.82 1197.6 1346 1163.77 1346Z" fill="white"/>
<circle cx="1099.5" cy="1377.5" r="31.5" fill="#FF335F"/>
<circle cx="1100" cy="1378" r="9" fill="white"/>
<path d="M574.5 771C540.809 771 540.919 740.082 542.074 722.848C542.263 720.033 545.259 718.311 547.807 719.521L560.252 725.432C561.628 726.086 563.257 725.901 564.451 724.955L571.779 719.154C573.34 717.918 575.573 718.019 577.016 719.391L582.585 724.68C583.746 725.784 585.454 726.088 586.925 725.453L601.308 719.242C603.842 718.148 606.724 719.873 606.911 722.627C608.079 739.816 608.335 771 574.5 771Z" fill="#FF335F"/>
<circle cx="494.5" cy="760.5" r="31.5" fill="white"/>
<circle cx="495" cy="761" r="9" fill="#EEDE9D"/>
<path d="M647.745 748.09C660.963 743.083 673.848 756.198 668.929 769.653C667.55 773.425 667.55 777.575 668.929 781.347C673.848 794.802 660.963 807.917 647.745 802.91C644.039 801.507 639.961 801.507 636.255 802.91C623.037 807.917 610.152 794.802 615.071 781.347C616.45 777.575 616.45 773.425 615.071 769.653C610.152 756.198 623.037 743.083 636.255 748.09C639.961 749.493 644.039 749.493 647.745 748.09Z" fill="#E62E55"/>
<circle cx="642" cy="776" r="9" fill="white"/>
<path d="M98.6318 1059.51C104.439 1046.62 122.823 1046.78 128.859 1059.77C130.551 1063.42 133.486 1066.35 137.128 1068.04C150.12 1074.08 150.283 1092.46 137.396 1098.27C133.783 1099.9 130.899 1102.78 129.271 1106.4C123.464 1119.28 105.08 1119.12 99.0444 1106.13C97.3522 1102.49 94.417 1099.55 90.7748 1097.86C77.7831 1091.82 77.6204 1073.44 90.5073 1067.63C94.1201 1066 97.0038 1063.12 98.6318 1059.51Z" fill="#E62E55"/>
<circle cx="114.305" cy="1083.3" r="9" transform="rotate(-45 114.305 1083.3)" fill="white"/>
<path d="M965.5 825.5L979 779H1091.5L1082.5 825.5H965.5Z" fill="#FF335F"/>
<path d="M984 753L1002 706H1152L1140 753H984Z" fill="white"/>
<path d="M1001 683.398L1073 683.399L1101.82 568.51L1035.94 567.936L1001 683.398Z" fill="#E2A49B"/>
<path d="M1038 910.516C1038.4 943.316 1061.84 949.183 1073.5 948.016C1146.5 948.016 1153.51 921.516 1162.51 884.516C1167.13 865.517 1161.15 850.034 1153.58 839.574C1147.24 830.797 1142.64 819.773 1139.75 809.336C1135.8 795.123 1124.39 780.568 1099.01 788.016C1078.52 794.024 1072.26 813.27 1071.62 830.446C1071.15 842.888 1065.34 855.35 1056.73 864.341C1046.9 874.608 1037.76 890.128 1038 910.516Z" fill="#16615D"/>
<path d="M1094.5 908C1091.3 940.4 1073.83 965.833 1065.5 974.5H1108C1093.2 974.5 1098.5 930.167 1103 908H1094.5Z" fill="#EEDE9D"/>
<path d="M1065.5 974.5C1073.83 965.833 1091.3 940.4 1094.5 908M1103 908C1098.5 930.167 1093.2 974.5 1108 974.5" stroke="#404040" stroke-width="5" stroke-linecap="round" stroke-linejoin="round"/>
<path d="M762.5 224C764.072 240.506 780.252 251.928 788.563 255.8C788.843 255.93 789.043 256.175 789.116 256.474L816.781 369.107C816.905 369.612 816.621 370.127 816.128 370.293L708.672 406.442C708.558 406.48 708.458 406.536 708.363 406.609C703.667 410.235 686.966 413.662 659.5 420C627 427.5 628 395.5 650 389.5C665.031 385.401 676.148 368.272 681.245 359.269C681.696 358.472 680.891 357.551 680.014 357.815C649.782 366.924 646.009 337.778 665 329.5C679.701 323.092 690.228 306.116 694.322 297.067C694.637 296.37 694.031 295.618 693.27 295.694C659.455 299.085 661.181 274.942 672 271.5C687.333 264.167 719.6 244.4 726 224C734 198.5 760.5 203 762.5 224Z" fill="#0B4744"/>
<path d="M305 461C305.4 493.8 333.838 510.183 345.505 509.016C399.5 513 423 503.5 432 466.5C437.402 444.29 429.724 430.826 421.259 422.6C416.655 418.127 413.927 411.871 413.625 405.46C412.915 390.408 405.767 369.646 381 366.5C356.555 363.396 342.95 377.756 339.952 392.523C338.483 399.753 335.236 407.203 329.382 411.693C317.764 420.604 304.7 436.422 305 461Z" fill="#16615D"/>
<path d="M366.5 469C363.3 501.4 355.833 526.834 347.5 535.5H390C375.2 535.5 370.5 491.167 375 469H366.5Z" fill="#EEDE9D"/>
<path d="M347.5 535.5C355.833 526.834 363.3 501.4 366.5 469M375 469C370.5 491.167 375.2 535.5 390 535.5" stroke="#404040" stroke-width="5" stroke-linecap="round" stroke-linejoin="round"/>
<path d="M692.5 392C691.3 442.8 732.667 450.5 753.5 448H798C881 441.5 839 378 839 307.5C839 237 764.5 241.5 753.5 280.5C742.5 319.5 694 328.5 692.5 392Z" fill="#16615D"/>
<path d="M771 417C767.8 465.478 760.333 473.533 752 486.5H794.5C779.7 486.5 775 450.167 779.5 417H771Z" fill="#EEDE9D"/>
<path d="M752 486.5C760.333 473.533 767.8 465.478 771 417M779.5 417C775 450.167 779.7 486.5 794.5 486.5" stroke="#404040" stroke-width="5" stroke-linecap="round" stroke-linejoin="round"/>
<path d="M939 299.5C967 270.7 999.333 287.5 1012 299.5C1062.79 307.915 1062 339.626 1049.85 365.409C1044.53 376.689 1050.21 393.938 1053.69 405.915C1056.97 417.233 1054.4 430.936 1049.5 439C1035.4 462.225 976 470 932 447C900.991 430.791 901.259 404.331 911.746 387.033C918.207 376.376 924.997 357.689 924.11 345.258C923.036 330.208 926.539 312.317 939 299.5Z" fill="#16615D"/>
<path d="M991.5 398C994.7 446.478 1002.17 484.533 1010.5 497.5H968C982.8 497.5 987.5 431.167 983 398H991.5Z" fill="#EEDE9D"/>
<path d="M1010.5 497.5C1002.17 484.533 996.7 446.478 993.5 398M983 398C987.5 431.167 983 478.5 968 497.5" stroke="#404040" stroke-width="5" stroke-linecap="round" stroke-linejoin="round"/>
<path d="M633.5 399.5C617.583 442.312 497 456 483 389C477.878 364.486 483.764 341.582 497.724 328.337C504.446 321.959 510.17 313.901 511.434 304.723C519.763 244.254 578.338 250.949 591.122 290.215C595.818 304.64 607.778 321.179 619.393 330.937C634.55 343.671 645.529 367.145 633.5 399.5Z" fill="#16615D"/>
<path d="M554 385C550.8 433.478 543.333 471.533 535 484.5H577.5C562.7 484.5 558 418.167 562.5 385H554Z" fill="#EEDE9D"/>
<path d="M535 484.5C543.333 471.533 550.8 433.478 554 385M562.5 385C558 418.167 562.5 473 577.5 484.5" stroke="#404040" stroke-width="5" stroke-linecap="round" stroke-linejoin="round"/>
<path d="M883.658 1329.28C875.051 1325.28 868.206 1330.93 866.68 1337.63C866.309 1341.41 865.625 1348.1 864.923 1354.34C864.457 1358.48 863.984 1362.42 863.588 1365.19C862.35 1373.86 882.164 1380.17 887.118 1367.67C888.764 1363.51 889.185 1358.39 888.967 1353.35C888.877 1351.25 888.676 1349.17 888.406 1347.18C887.902 1343.45 887.159 1340.03 886.451 1337.43C886.13 1336.25 886.529 1334.97 887.503 1334.23C886.426 1332.5 885.595 1330.18 883.658 1329.28Z" fill="#E2A49B"/>
<path d="M887.503 1334.23C886.529 1334.97 886.13 1336.25 886.451 1337.43C887.159 1340.03 887.902 1343.45 888.406 1347.18C890.183 1343.36 889.901 1338.09 887.503 1334.23Z" fill="#FFD6C4"/>
<path d="M856.545 1375.57C870.94 1381.81 903.841 1393.68 900.994 1371.51C899.762 1361.93 894.943 1356.16 888.967 1353.35C889.185 1358.39 888.764 1363.51 887.118 1367.67C882.164 1380.17 862.35 1373.86 863.588 1365.19C863.984 1362.42 864.457 1358.48 864.923 1354.34C854.822 1358.85 854.791 1365.83 851.824 1376.34C851.853 1376.53 851.965 1376.63 852.137 1376.66C852.584 1376.31 853.152 1375.83 853.649 1375.44C854.337 1374.9 855.256 1375.01 856.058 1375.36C856.218 1375.43 856.38 1375.5 856.545 1375.57Z" fill="#9AC9D3"/>
<path d="M1040 1376.96V1407.5H788V1377.97C788 1371.23 791.76 1365.06 797.744 1361.97L799.88 1360.87C811.915 1354.66 826.174 1354.48 838.361 1360.39L852 1367L867.122 1359.88C879.043 1354.27 892.877 1354.44 904.661 1360.33L918 1367L930.889 1360.65C943.213 1354.59 957.693 1354.77 969.857 1361.15L981 1367L992.195 1361.22C1004.55 1354.85 1019.28 1355.16 1031.35 1362.06C1036.7 1365.11 1040 1370.8 1040 1376.96Z" fill="#6A6A6A"/>
<path fill-rule="evenodd" clip-rule="evenodd" d="M780.017 1384.23C770.086 1388.63 768.865 1397.29 769.657 1402.42C769.839 1403.59 770.675 1404.52 771.769 1405C785.836 1411.09 817.984 1422.7 815.202 1401.03C813.657 1389.01 806.335 1383.14 798.262 1381.62C797.182 1381.42 796.067 1381.3 794.928 1381.24C792.419 1381.13 789.799 1381.36 787.203 1381.91C784.747 1382.42 782.313 1383.21 780.017 1384.23Z" fill="white"/>
<path fill-rule="evenodd" clip-rule="evenodd" d="M801.063 1363.28C806.516 1369.09 798.126 1380.59 794.928 1381.24C796.067 1381.3 797.182 1381.42 798.262 1381.62C804.801 1379.42 805.824 1368.94 801.063 1363.28Z" fill="#FFD6C4"/>
<path d="M781.673 1367.92C780.48 1373.16 784.862 1379.43 787.203 1381.91C789.799 1381.36 792.419 1381.13 794.928 1381.24C798.126 1380.59 806.516 1369.09 801.063 1363.28C800.132 1362.18 798.979 1361.26 797.604 1360.62C789.194 1356.72 783.164 1361.38 781.673 1367.92Z" fill="#404040"/>
<path d="M586.952 1378.44C576.452 1416.94 520.952 1409.94 493.952 1403.44C454.452 1364.94 492.892 1348.84 489.952 1319.44C486.452 1284.44 524.952 1261.94 553.952 1288.94C585.528 1318.34 598.003 1337.92 586.952 1378.44Z" fill="#227974"/>
<path d="M930.665 1350.42C922.058 1346.43 915.213 1352.07 913.687 1358.77C913.316 1362.55 912.632 1369.24 911.93 1375.48C911.464 1379.62 910.991 1383.57 910.595 1386.33C909.357 1395 929.171 1401.32 934.125 1388.81C935.77 1384.66 936.192 1379.53 935.974 1374.49C935.884 1372.39 935.683 1370.31 935.413 1368.32C934.909 1364.59 934.166 1361.18 933.458 1358.57C933.137 1357.39 933.536 1356.12 934.51 1355.37C933.433 1353.64 932.602 1351.32 930.665 1350.42Z" fill="#171717"/>
<path d="M934.51 1355.37C933.536 1356.12 933.137 1357.39 933.458 1358.57C934.166 1361.18 934.909 1364.59 935.413 1368.32C937.19 1364.51 936.908 1359.23 934.51 1355.37Z" fill="#FFD6C4"/>
<path d="M903.552 1396.71C917.947 1402.95 950.848 1414.82 948.001 1392.66C946.769 1383.07 941.95 1377.3 935.974 1374.49C936.192 1379.53 935.77 1384.66 934.125 1388.81C929.171 1401.32 909.357 1395 910.595 1386.33C910.991 1383.57 911.464 1379.62 911.93 1375.48C901.829 1379.99 901.798 1386.97 898.831 1397.48C898.86 1397.67 898.972 1397.77 899.144 1397.8C899.591 1397.45 900.159 1396.97 900.656 1396.58C901.344 1396.04 902.263 1396.15 903.065 1396.5C903.225 1396.57 903.387 1396.64 903.552 1396.71Z" fill="#FF335F"/>
<path d="M1015 1413.96V1444.5H763V1414.97C763 1408.23 766.76 1402.06 772.744 1398.97L774.88 1397.87C786.915 1391.66 801.174 1391.48 813.361 1397.39L827 1404L842.122 1396.88C854.043 1391.27 867.877 1391.44 879.661 1397.33L893 1404L905.889 1397.65C918.213 1391.59 932.693 1391.77 944.857 1398.15L956 1404L967.195 1398.22C979.546 1391.85 994.284 1392.16 1006.35 1399.06C1011.7 1402.11 1015 1407.8 1015 1413.96Z" fill="#404040" stroke="#404040" stroke-width="5" stroke-linejoin="round"/>
<path d="M365.5 1404.5C365.5 1451.96 432 1449.5 459 1443C471.167 1441.67 490.5 1436.4 498.5 1418C508.5 1395 489.56 1388.4 492.5 1359C496 1324 452 1299 419.5 1332.5C387 1366 365.5 1362.5 365.5 1404.5Z" fill="#16615D"/>
<path d="M623.711 1528.53C607.371 1503.83 641.251 1477.43 661.544 1468.87C670.139 1464.18 687.86 1462.84 699.544 1468.87C714.149 1476.42 712.215 1482.03 724.302 1496.02C738.692 1512.69 717.875 1545.16 684.609 1542.11C651.343 1539.05 638.17 1550.39 623.711 1528.53Z" fill="#16615D"/>
<path d="M1089.44 714.26C1088.68 716.071 1088.08 720.487 1091.69 723.661C1095.3 726.836 1099.59 726.496 1101.28 725.929L1102.97 725.22L1089.44 714.26Z" fill="#FFD6C4"/>
<path d="M1111.43 728.794C1111.43 730.107 1112.44 732.732 1116.5 732.732H1129.47C1130.58 731.598 1130.67 729.331 1122.14 729.331L1116.5 727.988L1111.43 728.794Z" fill="#FFD6C4"/>
<path d="M1022.33 727.063L1015 735H1034.17C1034.74 733.488 1034.51 730.465 1029.1 730.465L1030.79 727.063H1022.33Z" fill="#404040"/>
<path d="M1081.81 679.05C1074.33 670.689 1061.1 671.14 1054.2 679.991L1024.59 717.992L1017.26 727.063H1022.33H1030.79H1040.38L1071.95 690.213L1082.1 679.378L1081.81 679.05Z" fill="#D9D9D9"/>
<path d="M1118.76 727.63L1106.35 712.89L1082.1 679.378L1071.95 690.213C1079.68 705.18 1083.63 713.693 1089.44 714.26L1102.97 725.22L1108.04 729.331L1111.43 728.794L1116.5 727.988L1118.76 727.63Z" fill="#FF335F"/>
<path d="M814.388 311.843L821.1 283.207C821.277 282.453 822.206 282.177 822.766 282.713L844.243 303.295C844.8 303.829 844.568 304.766 843.825 304.978L815.637 313.032C814.903 313.242 814.214 312.586 814.388 311.843Z" fill="#FF335F"/>
<path d="M844.833 336.311L845.228 306.902C845.238 306.127 846.087 305.658 846.748 306.061L872.15 321.542C872.809 321.944 872.784 322.909 872.104 323.276L846.308 337.204C845.636 337.567 844.823 337.074 844.833 336.311Z" fill="#FF335F"/>
<path d="M892.977 358.2L884.072 330.169C883.838 329.43 884.495 328.717 885.25 328.891L914.238 335.566C914.99 335.739 915.271 336.663 914.742 337.226L894.658 358.582C894.136 359.138 893.208 358.927 892.977 358.2Z" fill="white"/>
<path d="M932.157 363.131L915.825 338.67C915.395 338.026 915.828 337.159 916.601 337.116L946.304 335.486C947.075 335.444 947.601 336.254 947.249 336.941L933.879 363.031C933.531 363.711 932.581 363.765 932.157 363.131Z" fill="#FF335F"/>
<path d="M968.539 359.046L947.738 338.252C947.19 337.704 947.446 336.769 948.196 336.576L977.006 329.169C977.754 328.976 978.428 329.668 978.217 330.41L970.208 358.612C969.999 359.346 969.079 359.585 968.539 359.046Z" fill="white"/>
<path d="M817 270C835 300.833 896 361.5 995 324" stroke="#404040" stroke-width="5" stroke-linecap="round" stroke-linejoin="round"/>
<path d="M1034.25 635.57L1043 638.614L1076.85 626.835C1080.21 625.669 1081.93 621.913 1080.64 618.568C1079.49 615.573 1076.31 613.929 1073.24 614.747L1055.47 619.479L1043 622.8L1029.88 619.479L1011.48 614.824C1008.2 613.995 1004.9 616.063 1004.16 619.399C1003.5 622.417 1005.18 625.457 1008.07 626.462L1034.25 635.57Z" fill="#404040"/>
<path d="M1043 638.614L1034.25 635.57L1032.02 645.873C1031.56 647.993 1033.15 650 1035.3 650C1036.57 650 1037.73 649.273 1038.3 648.121L1043 638.614Z" fill="white"/>
<path d="M1029.88 619.479L1043 622.8L1055.47 619.479L1056.75 598.762L1069.88 571.562H1067.38H1062.38H1059.25L1052.33 586.743L1050.88 589.906L1048 596.232H1038.62L1035.9 589.906L1034.54 586.743L1028 571.562H1026.12H1021.75H1018L1029.88 598.762V619.479Z" fill="#FF335F"/>
<path d="M1062.38 571.562H1067.38L1069.1 569.473C1070.02 568.353 1071.17 567.428 1072.46 566.773L1074.78 565.598C1075.25 565.365 1075.61 564.969 1075.8 564.484C1076.25 563.33 1075.41 562.073 1074.18 562.073L1072.06 562.073C1069.18 562.073 1066.53 563.683 1065.17 566.259L1062.38 571.562Z" fill="#FFD6C4"/>
<path d="M1014.88 565.236C1018.38 566.754 1020.92 570.086 1021.75 571.562H1026.12C1022.24 561.727 1019.61 561.847 1015.26 562.055C1015.01 562.067 1014.77 562.161 1014.58 562.322L1014.27 562.585C1013.44 563.283 1013.88 564.807 1014.88 565.236Z" fill="#FFD6C4"/>
<path d="M1038.62 596.232H1048L1050.88 589.906C1045.19 589.906 1043.26 584.424 1043 581.683C1043 586.237 1038.27 589.063 1035.9 589.906L1038.62 596.232Z" fill="#FFD6C4"/>
<path fill-rule="evenodd" clip-rule="evenodd" d="M1069.1 569.473C1070.02 568.353 1071.17 567.428 1072.46 566.773C1071.17 567.428 1070.02 568.347 1069.1 569.473Z" fill="#D9D9D9"/>
<path d="M1043 577.888C1036.5 578.394 1034.65 584.002 1034.54 586.743L1035.9 589.906C1038.27 589.063 1043 586.237 1043 581.683C1043.26 584.424 1045.19 589.906 1050.88 589.906L1052.33 586.743C1051.93 583.581 1049.5 577.382 1043 577.888Z" fill="#404040"/>
<path d="M438 566C424.934 561.893 414.916 567.049 410.793 570.736C410.352 571.13 410.403 571.816 410.869 572.18L420.775 579.933C421.185 580.253 421.28 580.835 420.994 581.269L411.62 595.535C411.095 596.334 411.874 597.32 412.767 596.981C419.607 594.382 428.355 590.808 438 593C449.137 595.531 452.659 595.518 456.565 595.502C457.091 595.5 457.528 595.092 457.563 594.568L459.265 569.462C459.333 568.461 457.527 567.455 456.569 567.754C453.336 568.766 447.454 568.971 438 566Z" fill="#FF335F"/>
<path d="M455 674L459.5 567.5" stroke="#404040" stroke-width="5" stroke-linecap="round" stroke-linejoin="round"/>
<path d="M376.5 394.5C408.667 408.833 480.7 422.2 511.5 361" stroke="#404040" stroke-width="5" stroke-linecap="round" stroke-linejoin="round"/>
<circle cx="383.5" cy="408.5" r="8.5" fill="white"/>
<circle cx="410.5" cy="415.5" r="8.5" fill="white"/>
<path d="M451 416.5C451 421.194 447.194 425 442.5 425C437.806 425 434 421.194 434 416.5C434 411.806 437.806 408 442.5 408C447.194 408 451 411.806 451 416.5Z" fill="white"/>
<circle cx="474.5" cy="408.5" r="8.5" fill="white"/>
<circle cx="501.5" cy="392.5" r="8.5" fill="white"/>
<path fill-rule="evenodd" clip-rule="evenodd" d="M475.002 673.5H738V594L751 535.5C734.358 529.992 686.947 504.379 682.447 465C662.054 502.973 612.548 556.135 577.669 465C575.782 467.64 573.777 470.558 571.646 473.66C554.852 498.106 530.191 534.002 493 535.5L475.002 597V673.5Z" fill="white"/>
<path d="M738 594V673.5L751 610.5V535.5L738 594Z" fill="#D9D9D9"/>
<path d="M556.222 526.179C551.417 534.5 537.024 551.916 517.897 555.01" stroke="#404040" stroke-width="5" stroke-linecap="round" stroke-linejoin="round"/>
<path d="M559 609C554.235 621.411 539.965 647.385 521 652" stroke="#404040" stroke-width="5" stroke-linecap="round" stroke-linejoin="round"/>
<path d="M528.797 671.148C543.35 668.574 571.805 651.669 574.326 604.808C574.341 602.394 574.404 600.114 574.505 598.015C574.505 600.346 574.444 602.61 574.326 604.808C574.164 630.428 579.403 671.148 602.282 671.148H528.797Z" fill="#404040" stroke="#404040" stroke-width="5" stroke-linecap="round" stroke-linejoin="round"/>
<path d="M632 671.148C646.553 668.574 675.008 651.669 677.529 604.808C677.544 602.394 677.607 600.114 677.708 598.015C677.708 600.346 677.647 602.61 677.529 604.808C677.367 630.428 682.606 671.148 705.485 671.148H632Z" fill="#404040" stroke="#404040" stroke-width="5" stroke-linecap="round" stroke-linejoin="round"/>
<path d="M694.05 538.836C697.929 545.534 709.549 555.333 724.991 557.823" stroke="#404040" stroke-width="5" stroke-linecap="round" stroke-linejoin="round"/>
<path d="M624.784 559.581C630.879 558.643 645.951 551.494 657.483 530.398" stroke="#404040" stroke-width="5" stroke-linecap="round" stroke-linejoin="round"/>
<path d="M631.816 538.485C637.911 537.547 652.983 530.398 664.515 509.302" stroke="#404040" stroke-width="5" stroke-linecap="round" stroke-linejoin="round"/>
<path d="M475.705 598.609C508.169 595.444 576.966 584.193 576.966 538.485M576.966 538.485V465.352M576.966 538.485C576.966 567.668 594.265 593.124 621.268 593.686C648.271 594.249 681.744 551.142 681.744 533.562M681.744 533.562V466.055M681.744 533.562C681.744 555.01 697.5 598.609 737.5 593.686" stroke="#404040" stroke-width="5" stroke-linecap="round" stroke-linejoin="round"/>
<path d="M403.057 1574L421.057 1660" stroke="#404040" stroke-width="5" stroke-linecap="round"/>
<circle cx="402.557" cy="1575" r="11" fill="#FF335F"/>
<path d="M442.934 1581.2C438.413 1585.73 430.826 1597.91 411.609 1600.62C409.455 1600.92 408.038 1603.14 408.846 1605.16C409.426 1606.61 410.962 1607.43 412.479 1607.07C424.084 1604.29 443.363 1598.33 444.588 1592.45L442.934 1581.2Z" fill="#FFD6C4"/>
<path d="M477.312 1600.53C479.104 1599.03 479.227 1596.32 477.577 1594.67L464.108 1581.2L462.454 1591.13L470.725 1596.42L461.383 1599.73L460.8 1603.7C462.761 1603.83 463.023 1603.67 465.431 1604.36L475.891 1601.29C476.411 1601.13 476.895 1600.87 477.312 1600.53Z" fill="#FFD6C4"/>
<path d="M446.243 1603.7C417.129 1606.35 406.322 1656.41 404.557 1674.5H501.162C501.162 1636.97 479.542 1608.42 465.431 1604.36C463.023 1603.67 462.761 1603.83 460.8 1603.7H446.243Z" fill="#9AC9D3"/>
<path d="M446.243 1603.7H460.8L461.383 1599.73L462.454 1591.13L464.108 1581.2H442.934L444.588 1592.45L446.243 1603.7Z" fill="#9AC9D3"/>
<path d="M462.221 1572.43C460.67 1562.57 456.794 1564.08 452.143 1564.08C450.608 1564.08 449.41 1564.66 448.495 1565.6C450.538 1566.81 450.228 1575.21 449.817 1579.25C449.817 1582.79 449.197 1590.33 446.716 1592.15C443.616 1594.42 437.414 1599.73 453.693 1599.73C469.973 1599.73 473.849 1595.94 468.422 1592.15C462.996 1588.35 463.771 1582.29 462.221 1572.43Z" fill="#595959"/>
<path d="M445.941 1573.94C445.941 1577.58 448.525 1579 449.817 1579.25C450.228 1575.21 450.538 1566.81 448.495 1565.6C446.637 1567.51 445.941 1570.9 445.941 1573.94Z" fill="#FFD5C4"/>
<path d="M339.068 1536.01C322.789 1536.36 316.411 1549.78 315.256 1556.45C313.226 1566.65 323.625 1569.37 333.474 1569.41C339.223 1569.44 343.397 1564.41 343.397 1558.66C343.397 1558.16 343.802 1557.75 344.301 1557.75H365.074C365.536 1557.75 365.91 1558.13 365.91 1558.59C365.91 1563.49 369.881 1569.06 373.964 1566.36C376.05 1564.97 377.027 1562.04 375.002 1556.45C369.806 1542.1 359.416 1535.58 339.068 1536.01Z" fill="#FF335F"/>
<path d="M324.454 1579.34L326.936 1568.17V1561.97L357.35 1557V1579.34H324.454Z" fill="#FF335F"/>
<path d="M323.886 1623.55L328.701 1579.61C328.756 1579.11 329.185 1578.72 329.695 1578.72H352.555C353.134 1578.72 353.592 1579.21 353.553 1579.79L350.562 1623.46C350.538 1623.81 350.707 1624.16 351.005 1624.36L355.223 1627.17C356.046 1627.72 355.658 1629 354.668 1629H343.454C342.901 1629 342.454 1628.55 342.454 1628V1581.99C342.454 1580.77 340.671 1580.62 340.468 1581.83L332.663 1628.17C332.582 1628.65 332.165 1629 331.677 1629H319.297C318.289 1629 317.914 1627.68 318.773 1627.15L323.416 1624.29C323.679 1624.13 323.853 1623.85 323.886 1623.55Z" fill="#404040"/>
<path d="M335.64 1529.95C335.324 1537.73 340.354 1540.86 343.906 1540.86C352.983 1540.86 353.005 1539.68 353.005 1531.16C353.005 1524.35 348.269 1521.57 345.901 1521.03C342.613 1520.76 335.956 1522.17 335.64 1529.95Z" fill="#FFD6C4"/>
<path d="M343.647 1555.52V1536.99C343.647 1536.44 344.095 1535.99 344.647 1535.99H366.52C367.072 1535.99 367.52 1536.44 367.52 1536.99V1555.52C367.52 1556.07 367.072 1556.52 366.52 1556.52H344.647C344.095 1556.52 343.647 1556.07 343.647 1555.52Z" fill="#404040" stroke="#404040" stroke-width="5" stroke-linecap="round"/>
<circle cx="360.836" cy="1546.5" r="6.18435" fill="#D9D9D9" stroke="#404040"/>
<path d="M356.729 1530.69V1538.62C356.729 1539.17 357.177 1539.62 357.729 1539.62H365.661C366.213 1539.62 366.661 1539.17 366.661 1538.62V1530.69C366.661 1530.14 366.213 1529.69 365.661 1529.69H357.729C357.177 1529.69 356.729 1530.14 356.729 1530.69Z" fill="#404040"/>
<path d="M340.782 1545.06C338.109 1545.06 337.122 1550.79 336.963 1553.66C336.963 1555.95 339.509 1555.89 340.782 1555.57L344.125 1549.36C345.08 1547.93 345.08 1545.06 340.782 1545.06Z" fill="#FFD6C4"/>
</svg>
