<svg width="18" height="18" viewBox="0 0 18 18" fill="none" xmlns="http://www.w3.org/2000/svg">
<path fill-rule="evenodd" clip-rule="evenodd" d="M5.91502 0C2.64824 0 0 2.64824 0 5.91502C0 7.77175 0.855497 9.42867 2.19382 10.5131C2.17437 10.7097 2.16441 10.909 2.16441 11.1107C2.16441 14.4216 4.84843 17.1056 8.15935 17.1056H11.1107C14.4216 17.1056 17.1056 14.4216 17.1056 11.1107C17.1056 9.15401 16.1682 7.41626 14.718 6.32207C14.7271 6.18757 14.7318 6.05184 14.7318 5.91502C14.7318 2.64824 12.0835 0 8.81674 0H5.91502Z" fill="#9AC9D3"/>
<path d="M6.30646 11.3868L5.25104 9.50761H7.61797L9.43236 6.85463C9.69819 6.46594 10.2716 6.46594 10.5375 6.85463L12.3518 9.50761H14.7188L13.9399 11.2306C13.6149 11.9495 12.899 12.4116 12.11 12.4116H8.05742C7.33143 12.4116 6.66197 12.0198 6.30646 11.3868Z" fill="white"/>
<path d="M7.00128 12.1729L9.98482 9.46783M9.98482 9.46783L13.207 12.1729M9.98482 9.46783H12.3319M9.98482 9.46783H7.67755" stroke="#A8A8A8" stroke-width="0.884772" stroke-linecap="round" stroke-linejoin="round"/>
</svg>
