<svg width="18" height="18" viewBox="0 0 18 18" fill="none" xmlns="http://www.w3.org/2000/svg">
<rect x="1.00073" y="8.51105" width="16.105" height="8.59452" rx="4.29726" fill="#FF335F"/>
<path d="M5.52765 11.8071V11.8071C6.03281 12.4646 6.81492 12.8501 7.64414 12.8501H10.532C11.398 12.8501 12.22 12.4685 12.7789 11.8071V11.8071" stroke="white" stroke-width="0.884772" stroke-linecap="round"/>
<path d="M8.4031 6.64744L7.13227 8.8309C6.29655 10.2668 4.73759 11.0536 3.1519 10.8645C2.9742 10.8434 2.79529 10.8247 2.61635 10.8214C1.27811 10.7974 1.52222 10.5676 2.23777 9.70646L5.84376 5.02027C6.0568 4.7346 6.1147 4.35529 5.99724 4.0149L5.98019 3.9655C5.75043 3.2997 4.95535 3.0739 4.43284 3.52607C4.37813 3.57342 4.32854 3.62683 4.28494 3.68537L4.16521 3.84612C3.82906 4.29743 3.31142 4.56152 2.76297 4.56152C1.43189 4.56152 0.574623 3.09205 1.18799 1.8618L1.2718 1.6937C1.79062 0.653085 2.82279 3.05176e-05 3.94869 3.05176e-05H5.3471C6.5964 3.05176e-05 7.74018 0.729588 8.30786 1.88854L8.55286 2.38871C9.21451 3.7395 9.15785 5.35066 8.4031 6.64744Z" fill="#FF335F"/>
<path d="M0.31293 4.52331L1.12021 3.32917C1.4362 2.86175 2.04275 2.72322 2.51757 3.01002C3.05875 3.3369 3.21137 4.07848 2.84636 4.60761L1.40511 6.6969C1.1757 7.02945 0.710324 7.05723 0.445939 6.75414C-0.0944291 6.13466 -0.149701 5.20765 0.31293 4.52331Z" fill="#FFF2F2"/>
<ellipse cx="3.79365" cy="2.12395" rx="0.440683" ry="0.458931" fill="#404040"/>
</svg>
