<svg width="90" height="89" viewBox="0 0 90 89" fill="none" xmlns="http://www.w3.org/2000/svg">
<rect width="88.5555" height="88.5555" rx="44.2778" transform="matrix(-1 0 0 1 89.4734 0)" fill="white"/>
<path fill-rule="evenodd" clip-rule="evenodd" d="M32.7423 45.8592C31.9781 45.8592 31.3586 45.2397 31.3586 44.4756C31.3586 43.7114 31.9781 43.0919 32.7423 43.0919H52.3042C53.0438 43.0919 53.4142 42.1976 52.8912 41.6746L44.2174 33.0008C43.677 32.4604 43.677 31.5843 44.2174 31.0439C44.7577 30.5036 45.6338 30.5036 46.1742 31.0439L58.6274 43.4972C59.1678 44.0376 59.1678 44.9136 58.6274 45.454L46.1742 57.9073C45.6338 58.4476 44.7577 58.4476 44.2174 57.9073C43.677 57.3669 43.677 56.4908 44.2174 55.9504L52.8913 47.2765C53.4143 46.7535 53.0439 45.8592 52.3043 45.8592H32.7423Z" fill="#595959"/>
</svg>
