<svg width="340" height="340" viewBox="0 0 340 340" fill="none" xmlns="http://www.w3.org/2000/svg">
<rect x="108.123" y="225.376" width="33.0168" height="47.6237" rx="7" fill="#171717"/>
<rect x="218.179" y="225.376" width="33.0168" height="47.6237" rx="7" fill="#171717"/>
<path d="M92.4908 136.274L105.625 172.735" stroke="#171717" stroke-width="8"/>
<path d="M104.873 95.7124H114.872L108.087 136.683C107.37 141.011 102.95 143.669 98.7914 142.274L95.3563 141.122C93.9153 140.638 92.3548 140.646 90.9189 141.145C85.9955 142.853 81.0369 138.673 81.8884 133.531L85.4198 112.209C86.996 102.692 95.2264 95.7124 104.873 95.7124Z" fill="white"/>
<path d="M98.6628 176.144L114.53 82.0082C115.99 73.3438 123.493 67 132.279 67H225.938C234.725 67 242.228 73.3439 243.688 82.0083L259.555 176.144C259.851 177.902 260 179.681 260 181.463V217.989C260 231.244 249.255 241.989 236 241.989H122.218C108.963 241.989 98.2177 231.244 98.2177 217.989V181.463C98.2177 179.681 98.3665 177.902 98.6628 176.144Z" fill="url(#paint0_linear_1_408)"/>
<ellipse cx="120.779" cy="183.844" rx="11.5559" ry="11.629" fill="white"/>
<ellipse cx="238.539" cy="183.844" rx="11.5559" ry="11.629" fill="white"/>
<path d="M117.524 156.617L123.542 110.979C123.935 107.994 126.48 105.763 129.49 105.763H228.408C231.355 105.763 233.866 107.904 234.332 110.815L241.649 156.507C242.038 158.938 240.161 161.14 237.7 161.14H121.489C119.072 161.14 117.208 159.013 117.524 156.617Z" fill="white"/>
<defs>
<linearGradient id="paint0_linear_1_408" x1="179.109" y1="102.351" x2="179.109" y2="241.989" gradientUnits="userSpaceOnUse">
<stop stop-color="#FF3461"/>
<stop offset="1" stop-color="#F46C95"/>
</linearGradient>
</defs>
</svg>
