<svg width="340" height="340" viewBox="0 0 340 340" fill="none" xmlns="http://www.w3.org/2000/svg">
<path fill-rule="evenodd" clip-rule="evenodd" d="M82.1915 80.3286C85.3645 72.3618 93.2633 67.3044 101.827 67.7566L302.434 78.351C317.416 79.1421 329.321 91.2289 329.885 106.221L334.015 216.029C334.551 230.29 323.061 242.106 308.791 241.968L28.9015 239.265C15.6639 239.137 5.00001 228.37 5.00001 215.131V215.131V183.311C5.00001 177.457 8.41747 172.141 13.7438 169.71L48.4274 153.883C51.9324 152.284 54.6846 149.393 56.1102 145.814L82.1915 80.3286Z" fill="url(#paint0_linear_1_398)"/>
<ellipse cx="35.1359" cy="34.2424" rx="35.1359" ry="34.2424" transform="matrix(-1 0 0 1 289.483 204.515)" fill="#171717"/>
<ellipse cx="35.1359" cy="34.2424" rx="35.1359" ry="34.2424" transform="matrix(-1 0 0 1 111.966 204.515)" fill="#171717"/>
<path d="M126.671 109.53C126.928 107.809 125.672 106.232 123.937 106.096L91.1422 103.539C89.8397 103.438 88.6212 104.191 88.1295 105.401L68.5489 153.612C67.7885 155.484 69.0592 157.558 71.0727 157.73L116.057 161.579C117.635 161.714 119.046 160.599 119.28 159.033L126.671 109.53Z" fill="white"/>
<ellipse cx="11.9483" cy="11.6444" rx="11.9483" ry="11.6444" transform="matrix(-1 0 0 1 34.5862 172.354)" fill="white"/>
<defs>
<linearGradient id="paint0_linear_1_398" x1="169.236" y1="78.0899" x2="165.638" y2="313.199" gradientUnits="userSpaceOnUse">
<stop offset="0.491" stop-color="#FE3360"/>
<stop offset="1" stop-color="#DEDEFF"/>
</linearGradient>
</defs>
</svg>
