<svg width="340" height="340" viewBox="0 0 340 340" fill="none" xmlns="http://www.w3.org/2000/svg">
<path fill-rule="evenodd" clip-rule="evenodd" d="M257.808 80.3286C254.635 72.3618 246.737 67.3044 238.173 67.7566L37.5655 78.351C22.5841 79.1421 10.6793 91.2289 10.1154 106.221L5.98515 216.029C5.44876 230.29 16.9388 242.106 31.2089 241.968L311.099 239.265C324.336 239.137 335 228.37 335 215.131V215.131V183.311C335 177.457 331.583 172.141 326.256 169.71L291.573 153.883C288.068 152.284 285.315 149.393 283.89 145.814L257.808 80.3286Z" fill="url(#paint0_linear_3_514)"/>
<ellipse cx="85.6531" cy="238.758" rx="35.1359" ry="34.2424" fill="#171717"/>
<ellipse cx="263.17" cy="238.758" rx="35.1359" ry="34.2424" fill="#171717"/>
<path d="M213.329 109.53C213.072 107.809 214.328 106.232 216.063 106.096L248.858 103.539C250.16 103.438 251.379 104.191 251.871 105.401L271.451 153.612C272.212 155.484 270.941 157.558 268.927 157.73L223.943 161.579C222.365 161.714 220.954 160.599 220.72 159.033L213.329 109.53Z" fill="white"/>
<path d="M53.931 109.083L188.681 99.0078L195.034 164.497L59.7155 174.572L53.931 109.083Z" fill="#C71039"/>
<path d="M33.4483 119.123L59.6207 172.354" stroke="#171717" stroke-width="8" stroke-linecap="round"/>
<path d="M164.31 109.142L190.483 162.373" stroke="#171717" stroke-width="8" stroke-linecap="round"/>
<path d="M178.997 91.0734L33.0376 102.54C28.7074 102.88 25.2507 106.288 24.8488 110.613L24.0903 118.776C23.37 126.527 33.7576 129.745 37.5457 122.944L38.1354 121.885C40.5008 117.638 46.5313 117.423 49.1933 121.491C51.7296 125.367 57.3987 125.396 59.9754 121.548L62.111 118.358C64.8024 114.338 70.7 114.299 73.4445 118.283C76.1226 122.17 81.8381 122.247 84.62 118.433L85.5633 117.14C88.3564 113.311 93.8509 112.743 97.3677 115.921L98.5788 117.015C102.551 120.604 108.738 120.046 112.004 115.804C115.414 111.375 121.958 110.997 125.855 115.004L127.126 116.311C130.792 120.08 137.01 119.468 139.871 115.056C142.519 110.971 148.126 110.084 151.906 113.153L154.136 114.963C157.768 117.912 163.083 117.455 166.159 113.93L166.853 113.135C169.616 109.969 174.419 109.633 177.595 112.383C182.748 116.845 190.72 112.826 190.197 106.03L189.754 100.277C189.329 94.7632 184.511 90.6403 178.997 91.0734Z" fill="white"/>
<ellipse cx="317.362" cy="183.999" rx="11.9483" ry="11.6444" fill="white"/>
<defs>
<linearGradient id="paint0_linear_3_514" x1="170.764" y1="78.0899" x2="174.362" y2="313.199" gradientUnits="userSpaceOnUse">
<stop offset="0.491" stop-color="#FE3360"/>
<stop offset="1" stop-color="#DEDEFF"/>
</linearGradient>
</defs>
</svg>
