<svg width="340" height="340" viewBox="0 0 340 340" fill="none" xmlns="http://www.w3.org/2000/svg">
<rect x="89.172" y="225.602" width="32.99" height="47.3982" rx="7" fill="#171717"/>
<rect x="199.139" y="225.602" width="32.99" height="47.3982" rx="7" fill="#171717"/>
<path d="M249.719 136.274L236.596 172.735" stroke="#171717" stroke-width="8"/>
<path d="M235.134 95.7124H225.156L231.937 136.69C232.653 141.014 237.068 143.669 241.222 142.274L244.655 141.122C246.095 140.638 247.656 140.647 249.091 141.145C254.01 142.853 258.965 138.677 258.115 133.541L254.585 112.209C253.01 102.692 244.78 95.7124 235.134 95.7124Z" fill="white"/>
<path d="M80.4204 179.723L96.5409 81.2535C97.8865 73.0341 104.989 67 113.318 67H208.684C217.013 67 224.115 73.0341 225.461 81.2535L241.581 179.723C241.861 181.433 242.001 183.161 242.001 184.893V215.478C242.001 233.151 227.675 247.478 210.001 247.478H112C94.3269 247.478 80 233.151 80 215.478V184.893C80 183.161 80.1406 181.433 80.4204 179.723Z" fill="url(#paint0_linear_1_512)"/>
<path d="M108.085 153.296L113.207 114.305C113.599 111.319 116.144 109.086 119.156 109.086H204.567C207.516 109.086 210.028 111.229 210.492 114.141L216.72 153.187C217.108 155.617 215.23 157.817 212.77 157.817H112.051C109.635 157.817 107.771 155.692 108.085 153.296Z" fill="white"/>
<rect x="92.0963" y="179.968" width="40.6877" height="19.9355" rx="9.96774" fill="#E62E55"/>
<rect x="191.066" y="179.968" width="40.6877" height="19.9355" rx="9.96774" fill="#E62E55"/>
<defs>
<linearGradient id="paint0_linear_1_512" x1="161.001" y1="103.46" x2="161.001" y2="247.478" gradientUnits="userSpaceOnUse">
<stop stop-color="#FF3461"/>
<stop offset="1" stop-color="#F46C95"/>
</linearGradient>
</defs>
</svg>
