<svg width="477" height="700" viewBox="0 0 477 700" fill="none" xmlns="http://www.w3.org/2000/svg">
<rect x="0.716797" y="0.521484" width="475.624" height="699.126" rx="40.8846" fill="url(#paint0_linear_775_4664)"/>
<mask id="mask0_775_4664" style="mask-type:alpha" maskUnits="userSpaceOnUse" x="21" y="1" width="456" height="699">
<rect x="21.874" y="1" width="454.252" height="699" rx="39.1597" fill="#D9D9D9"/>
</mask>
<g mask="url(#mask0_775_4664)">
<path d="M286.665 116.852C285.877 142.321 268.832 196.713 260.408 210.935H489.662V1.16992H417.784C375.117 38.4216 372.984 45.3541 339.507 53.5594C289.748 65.7551 287.65 85.016 286.665 116.852Z" fill="#22827D"/>
<path d="M79.9149 371.701C89.9136 396.917 116.618 398.121 124.167 396.917L342.296 237.017C357.668 216.868 360.84 141.916 318.829 126.687C266.316 107.651 285.567 97.6521 253.895 79.4365C231.935 66.8071 206.05 79.4365 174.378 74.0211C149.04 69.6887 131.966 72.4591 119.075 79.4365C108.462 85.1802 76.6972 98.8994 71.5744 143.765C66.2315 190.559 56.2231 186.834 41.7075 205.689C24.8106 227.637 14.6014 271.105 48.0786 305.567C81.5559 340.029 71.6563 350.874 79.9149 371.701Z" fill="#16615D"/>
<path d="M172.854 225.278C119.821 309.426 92.5262 576.821 85.5078 700H487.857L489.831 211.253C395.796 211.253 208.841 207.366 194.238 211.253C183.82 214.025 175.485 220.603 172.854 225.278Z" fill="url(#paint1_linear_775_4664)"/>
<path d="M117.79 291.381L238.407 494.05" stroke="#404040" stroke-width="2" stroke-linecap="round"/>
<path d="M489.826 518.829H247.937V599.733C264.019 591.035 294.957 576.219 341.64 583.486C403.836 593.168 446.995 639.774 454.052 700.493" stroke="white" stroke-width="2"/>
<path d="M202.546 700.656C213.724 647.783 260.658 608.102 316.861 608.102C373.063 608.102 419.997 647.783 431.175 700.656H202.546Z" fill="#404040"/>
<path d="M366.753 700H266.247C271.633 677.061 292.093 660 316.5 660C340.907 660 361.367 677.061 366.753 700Z" stroke="black" stroke-width="2"/>
<path d="M231.854 494.377V293.514H489.662V494.377H231.854Z" fill="#D24967"/>
<path d="M405 291L525.617 493.669" stroke="#404040" stroke-width="2" stroke-linecap="round"/>
<path d="M92.2036 298.683L89.5225 294.113C87.6498 290.922 89.3296 286.823 92.9038 285.864L177.535 263.146H497.374V300.031C497.374 308.03 488.107 312.461 481.881 307.44L477.026 303.524C466.942 312.861 451.445 313.102 441.076 304.085L440.43 303.524C430.801 312.783 415.666 313.062 405.702 304.166L404.984 303.524C394.045 312.954 377.85 312.954 366.912 303.524C356.817 312.871 341.313 313.146 330.894 304.164L330.152 303.524L328.933 304.708C320.398 312.994 306.667 312.455 298.808 303.524C289.276 312.69 274.207 312.69 264.675 303.524C254.625 312.829 239.15 312.969 228.934 303.848L228.572 303.524C218.534 312.818 203.066 312.924 192.903 303.768L192.633 303.524L191.914 304.166C181.95 313.062 166.815 312.783 157.186 303.524C147.654 312.69 132.585 312.69 123.052 303.524C113.547 312.011 98.6523 309.674 92.2036 298.683Z" fill="white"/>
<path d="M199.854 263.154L108.612 289.247H144.551L232.018 263.154H199.854Z" fill="#FF829D"/>
<path d="M281.414 263.154L199.854 289.247H232.018L310.624 263.154H281.414Z" fill="#FF829D"/>
<path d="M367.733 263.154L298.809 289.247H329.168L393.825 263.154H367.733Z" fill="#FF829D"/>
<path d="M447.159 263.154L393.333 289.247H418.277L467.18 263.154H447.159Z" fill="#FF829D"/>
<path d="M474.236 289.247H500.329V270.211L474.236 289.247Z" fill="#FF829D"/>
<path fill-rule="evenodd" clip-rule="evenodd" d="M333.692 436.456L279.119 470.731L224.478 493.553L217.24 477.15L269.267 451.726L322.346 418.39L333.692 436.456Z" fill="#FFE8DB"/>
<path d="M224.478 493.553L217.24 477.15L214.623 470.731C211.779 473.58 207.468 481.052 214.295 488.141C221.122 495.231 223.928 494.703 224.478 493.553Z" fill="#FFE8DB"/>
<path d="M219.383 487.972C218.234 485.674 215.313 480.817 212.818 479.767" stroke="#404040" stroke-width="1.96925" stroke-linecap="round"/>
<path d="M306.521 456.798L287.978 431.526L317.742 413.155C320.737 411.306 324.044 410.033 327.519 409.468C342.671 407.006 368.557 403.613 382.173 404.777C401.374 406.418 401.538 424.469 401.21 446.624C400.947 464.347 409.415 485.626 413.681 494.378H347.055L328.675 449.249L306.521 456.798Z" fill="#404040"/>
<path d="M212.162 463.526L234.808 464.505C235.957 464.723 239.239 463.066 239.239 458.602C239.239 454.139 235.847 453.898 234.152 454.336C236.996 448.209 238.878 435.956 223.649 435.956C208.42 435.956 209.645 448.209 212.162 454.336C210.192 453.789 206.254 453.876 206.254 458.602C206.254 463.329 209.84 463.574 212.162 463.526Z" fill="white"/>
<path fill-rule="evenodd" clip-rule="evenodd" d="M215.878 475.341L212.162 463.526L234.808 464.505L215.878 475.341Z" fill="#404040"/>
<path d="M224.634 506.029L234.808 464.505L215.878 475.341L224.634 506.029Z" fill="#404040"/>
<path d="M330.059 408.715L336.623 408.058C330.191 413.441 330.059 434.808 333.998 444.49C343.975 449.741 357.519 444.818 362.552 441.7C361.004 413.638 363.466 404.941 366.748 404.776L371.54 404.614C371.553 404.613 371.565 404.612 371.578 404.612L371.54 404.614C368.704 404.806 367.245 426.815 368.389 437.925L366.584 444.5L380.04 450.08L384.434 464.136C387.202 472.991 393.695 480.82 402.869 482.207C405.189 482.558 407.284 482.604 408.665 482.07L414.901 494.377H350.244C345.595 489.454 334.72 473.536 328.418 449.249C322.117 424.961 326.777 412.106 330.059 408.715Z" fill="white"/>
<path fill-rule="evenodd" clip-rule="evenodd" d="M390.982 454.955L377.424 484.344C374.802 490.415 368.822 494.347 362.208 494.347H304.061V481.054L359.08 473.013L371.397 446.496L390.982 454.955Z" fill="#FFE8DB"/>
<path d="M425.169 453.351C418.605 452.432 412.26 473.645 409.743 484.531L409.415 490.275C421.449 486.063 444.304 476.195 439.446 470.418C434.589 464.642 413.354 487.813 411.713 487.157C418.988 476.107 431.733 454.27 425.169 453.351Z" fill="white"/>
<path d="M72.8567 552.542L54.1504 586.664C51.9146 590.743 52.8374 595.829 56.3632 598.862L82.1817 621.072" stroke="#FFF2EB" stroke-width="21.3336"/>
<path fill-rule="evenodd" clip-rule="evenodd" d="M231.576 513.994L204.289 574.711C198.671 586.667 182.063 588.177 172.469 578.755L147.081 556.364L166.334 540.84L186.325 558.082L217.87 502.858L231.576 513.994Z" fill="#FFE8DB"/>
<path d="M217.87 502.858L231.576 513.994C236.887 503.258 247.098 479.592 245.453 470.821C243.808 462.049 239.4 465.338 237.401 468.08C238.086 464.653 233.461 460.541 233.118 468.08C232.925 472.317 229.691 487.126 224.651 487.126C225.618 484.501 230.584 475.918 229.177 475.104C225.922 473.219 225.751 477.331 221.297 481.785C216.492 486.59 216.899 497.719 217.87 502.858Z" fill="#FFE8DB"/>
<path d="M59.3955 598.8L63.6786 590.062" stroke="#404040" stroke-width="1.96925" stroke-linecap="round"/>
<path d="M237.744 467.565C237.344 471.22 236.03 479.558 233.975 483.67" stroke="#404040" stroke-width="1.96925" stroke-linecap="round"/>
<path d="M242.198 465.681C242.198 470.249 241.342 480.826 237.915 486.582" stroke="#404040" stroke-width="1.96925" stroke-linecap="round"/>
<path d="M245.967 471.849C245.396 476.075 243.637 485.452 241.17 489.152" stroke="#404040" stroke-width="1.96925" stroke-linecap="round"/>
<path d="M356.078 347.593C376.551 360.13 358.732 390.02 355.061 397.757L348.645 393.994L346.928 380.797L342.53 375.181C335.414 380.319 325.768 377.294 314.397 369.389C303.336 361.698 308.873 348.876 317.617 346.576C324.501 344.766 344.196 340.317 356.078 347.593Z" fill="#404040"/>
<path d="M321.837 403.242C315.712 396.213 314.572 376.903 314.625 368.907C322.015 371.783 337.449 370.476 344.137 368.428C344.504 368.316 345.108 369.13 344.896 369.45C343.441 371.642 341.935 375.253 345.196 378.002C346.125 378.786 349.899 379.57 352.094 377.375C355.046 374.423 359.355 374.918 360.717 378.316C361.345 379.884 362.128 385.214 356.64 387.095C353.277 388.249 353.044 385.065 355.216 398.72C355.329 399.428 355.51 400.133 355.756 400.807L357.276 404.965C359.252 410.372 355.249 416.098 349.491 416.098C346.541 416.098 343.813 414.529 342.329 411.98L340.023 408.019C332.183 410.305 327.166 409.358 321.837 403.242Z" fill="#FFE8DB"/>
<path d="M339.708 408.574C341.903 407.634 346.449 405.909 348.174 400.735" stroke="#404040" stroke-width="1.96925" stroke-linecap="round"/>
<path d="M358.164 379.1C357.221 378.561 355.283 377.881 354.119 381.138M353.617 383.646C353.759 382.922 353.928 381.672 354.119 381.138M354.119 381.138C354.527 381.765 355.718 382.532 357.223 381.78" stroke="#404040" stroke-width="1.96925" stroke-linecap="round"/>
<path d="M318.944 382.039C319.006 380.787 319.754 378.322 322.256 378.48C324.759 378.638 325.63 380.918 325.752 382.039" stroke="#404040" stroke-width="1.96925" stroke-linecap="round"/>
<path d="M335.478 382.363C335.539 381.111 336.287 378.646 338.789 378.804C341.292 378.962 342.163 381.243 342.285 382.363" stroke="#404040" stroke-width="1.96925" stroke-linecap="round"/>
<path d="M325.752 394.681C325.813 395.934 327.858 397.75 330.361 397.592C332.863 397.434 334.382 395.802 334.505 394.681" stroke="#404040" stroke-width="1.96925" stroke-linecap="round"/>
<path d="M391.035 456L396.779 458.297C398.42 454.414 401.5 449 402.5 436.5" stroke="#E62E55" stroke-width="1.96925" stroke-linecap="round"/>
<path d="M366.5 443.5L374.728 417" stroke="#E62E55" stroke-width="1.96925" stroke-linecap="round"/>
<path d="M339.015 476.475L367.569 472.372" stroke="#404040" stroke-width="1.96925" stroke-linecap="round"/>
<path d="M280.117 484.574C285.126 480.932 299.424 481.359 306.627 480.853C309.062 485.068 315.91 493.312 311.5 494C291.336 497.142 296.103 490.804 282.845 499.289C281.477 500.164 279.903 500.711 278.284 500.825C275.751 501.003 273.31 499.848 271.841 497.777L271.649 497.507L270.547 497.585C269.438 497.663 268.476 496.827 268.398 495.718C268.341 494.913 268.63 494.122 269.217 493.569C271.454 491.459 275.805 487.71 280.117 484.574Z" fill="#FFE8DB"/>
<path d="M271.79 497.168C271.802 496.564 272.295 494.994 274.167 493.547C276.04 492.099 281.945 487.955 283.857 486.285" stroke="#404040" stroke-width="1.96925" stroke-linecap="round"/>
<path d="M275.927 499.839C275.499 499.211 275.048 497.63 276.667 496.332C278.287 495.034 285.51 489.514 288.194 487.132" stroke="#404040" stroke-width="1.96925" stroke-linecap="round"/>
<path d="M281.082 500.628C280.385 500.074 279.459 498.603 281.331 497.156C283.204 495.708 289.515 491.097 292.425 488.808" stroke="#404040" stroke-width="1.96925" stroke-linecap="round"/>
<path d="M72.6359 682.577C71.9506 690.526 72.6359 693.841 71.7793 699.837H106.387L112.383 700H146.476L142.536 647.798H79.1462C73.4925 652.595 73.4925 672.64 72.6359 682.577Z" fill="#404040"/>
<path d="M113.093 509.402L110.148 522.389H131.694L134.019 509.402C134.432 506.774 137.419 502.242 142.854 498.735C150.76 493.633 147.763 483.584 146.419 477.4C147.287 475.05 149.675 470.34 150.76 468.279C147.97 468.949 141.614 468.65 138.514 462.095C135.414 455.54 130.195 452.046 127.974 451.118L105.188 470.289L113.093 509.402Z" fill="#FFE8DB"/>
<path d="M126.571 437.14C121.659 435.031 117.231 436.246 114.204 438.372C111.069 440.573 107.732 443.276 104.071 444.403C89.7168 448.824 82.3379 463.481 88.5678 480.425C95.1278 498.267 108.578 494.388 111.99 510.523C114.72 523.431 126.054 498.836 131.38 486.476C128.484 489.527 121.591 492.061 117.885 486.941C112.799 479.916 118.867 474.53 122.693 473.909C126.003 476.443 131.411 479.711 126.571 472.513C121.732 465.314 125.382 459.17 127.812 456.998C133.845 452.965 135.862 441.128 126.571 437.14Z" fill="#404040"/>
<path d="M49.3359 561.451L75.2058 572.587C75.2058 581.496 72.2362 626.783 70.7514 648.312H144.078C153.261 589.925 153.272 570.988 152.13 568.818L182.455 549.972C179.371 545.347 172.346 534.553 169.091 529.928C164.462 523.349 159.326 520.162 155.214 520.162C138.596 520.162 101.761 520.333 92.1669 520.333C82.5728 520.333 77.1863 527.208 75.2058 529.928L49.3359 561.451Z" fill="#FE3360"/>
<path d="M75.2061 572.759V547.231" stroke="#404040" stroke-width="1.96925" stroke-linecap="round"/>
<path d="M119.579 481.271C120.404 480.372 122.14 479.324 124.205 479.874M127.631 482.299C126.455 480.887 125.285 480.162 124.205 479.874M121.806 483.67C122.777 483.481 124.616 482.457 124.205 479.874" stroke="#404040" stroke-width="1.96925" stroke-linecap="round"/>
<path d="M134.141 470.649C133.284 469.45 132.085 466.675 134.141 465.167C136.197 463.659 138.424 465.795 139.281 467.052" stroke="#404040" stroke-width="1.96925" stroke-linecap="round"/>
<path d="M142.879 483.327C143.45 484.012 145.243 485.28 147.847 484.869" stroke="#404040" stroke-width="1.96925" stroke-linecap="round"/>
<path d="M187.054 557.722L196.079 563.958" stroke="#404040" stroke-width="1.96925" stroke-linecap="round"/>
<path d="M217.085 478.301C216.538 477.043 214.984 474.297 213.146 473.378" stroke="#404040" stroke-width="1.96925" stroke-linecap="round"/>
<path d="M202.151 409.699L213.146 429.72" stroke="white" stroke-width="1.96925" stroke-linecap="round"/>
<path d="M218.397 404.776L220.859 428.736" stroke="white" stroke-width="1.96925" stroke-linecap="round"/>
<path d="M50.9023 479.049V488.567" stroke="#404040" stroke-width="1.96925" stroke-linecap="round"/>
<path d="M50.9023 494.311V503.172" stroke="#404040" stroke-width="1.96925" stroke-linecap="round"/>
<path d="M53.8564 491.356H62.554" stroke="#404040" stroke-width="1.96925" stroke-linecap="round"/>
<path d="M47.6203 491.356H39.251" stroke="#404040" stroke-width="1.96925" stroke-linecap="round"/>
<path d="M94.3194 289.803L249 289.405M477.105 288.818L273.964 289.316" stroke="#FF829D" stroke-width="1.95798" stroke-linecap="round"/>
<path d="M329.766 380.849C329.766 382.317 328.298 386.918 326.34 389.66L329.766 391.618" stroke="#404040" stroke-width="1.95798" stroke-linecap="round" stroke-linejoin="round"/>
</g>
<path d="M159.127 151.104V144H138.247V151.104H131.383V136.704H131.959C134.839 136.704 136.279 133.664 136.279 127.584V109.92H161.575V136.704H165.991V151.104H159.127ZM143.959 117.216V128.208C143.959 131.696 143.383 134.528 142.231 136.704H153.895V117.216H143.959ZM189.97 140.928C187.506 143.328 184.53 144.528 181.042 144.528C177.554 144.528 174.578 143.328 172.114 140.928C169.65 138.496 168.418 135.52 168.418 132C168.418 128.48 169.65 125.52 172.114 123.12C174.578 120.688 177.554 119.472 181.042 119.472C184.53 119.472 187.506 120.688 189.97 123.12C192.434 125.52 193.666 128.48 193.666 132C193.666 135.52 192.434 138.496 189.97 140.928ZM177.202 136.176C178.226 137.232 179.506 137.76 181.042 137.76C182.578 137.76 183.842 137.232 184.834 136.176C185.858 135.12 186.37 133.728 186.37 132C186.37 130.272 185.858 128.88 184.834 127.824C183.842 126.768 182.578 126.24 181.042 126.24C179.506 126.24 178.226 126.768 177.202 127.824C176.21 128.88 175.714 130.272 175.714 132C175.714 133.728 176.21 135.12 177.202 136.176ZM209.308 144.528C205.692 144.528 202.684 143.328 200.284 140.928C197.884 138.496 196.684 135.52 196.684 132C196.684 128.48 197.884 125.52 200.284 123.12C202.684 120.688 205.692 119.472 209.308 119.472C212.604 119.472 215.324 120.384 217.468 122.208C219.612 124.032 221.02 126.416 221.692 129.36H214.204C213.148 127.12 211.516 126 209.308 126C207.74 126 206.46 126.544 205.468 127.632C204.476 128.688 203.98 130.144 203.98 132C203.98 133.856 204.476 135.328 205.468 136.416C206.46 137.472 207.74 138 209.308 138C211.516 138 213.148 136.88 214.204 134.64H221.692C221.02 137.584 219.612 139.968 217.468 141.792C215.324 143.616 212.604 144.528 209.308 144.528ZM229.678 144V126.288H223.294V120H243.79V126.288H236.926V144H229.678ZM256.711 144.528C253.607 144.528 250.967 143.296 248.791 140.832C246.647 138.368 245.575 135.424 245.575 132C245.575 128.576 246.647 125.632 248.791 123.168C250.967 120.704 253.607 119.472 256.711 119.472C259.463 119.472 261.639 120.448 263.239 122.4V120H270.487V144H263.239V141.6C261.639 143.552 259.463 144.528 256.711 144.528ZM254.359 136.272C255.383 137.392 256.711 137.952 258.343 137.952C259.975 137.952 261.287 137.392 262.279 136.272C263.303 135.152 263.815 133.728 263.815 132C263.815 130.272 263.303 128.848 262.279 127.728C261.287 126.608 259.975 126.048 258.343 126.048C256.711 126.048 255.383 126.608 254.359 127.728C253.367 128.848 252.871 130.272 252.871 132C252.871 133.728 253.367 135.152 254.359 136.272ZM276.453 144V120H288.213C291.221 120 293.493 120.752 295.029 122.256C296.565 123.728 297.333 125.44 297.333 127.392C297.333 128.832 296.885 130.112 295.989 131.232C297.909 132.704 298.869 134.496 298.869 136.608C298.869 138.592 298.133 140.32 296.661 141.792C295.221 143.264 293.013 144 290.037 144H276.453ZM283.701 138.144H289.509C290.117 138.144 290.629 137.968 291.045 137.616C291.461 137.232 291.669 136.72 291.669 136.08C291.669 135.44 291.461 134.944 291.045 134.592C290.629 134.24 290.117 134.064 289.509 134.064H283.701V138.144ZM283.701 129.312H288.069C289.445 129.312 290.133 128.672 290.133 127.392C290.133 126.112 289.445 125.472 288.069 125.472H283.701V129.312ZM318.865 144L310.513 134.688V144H303.265V120H310.513V129.456L317.953 120H326.449L316.945 131.856L328.033 144H318.865ZM338.414 144.528C335.31 144.528 332.67 143.296 330.494 140.832C328.35 138.368 327.278 135.424 327.278 132C327.278 128.576 328.35 125.632 330.494 123.168C332.67 120.704 335.31 119.472 338.414 119.472C341.166 119.472 343.342 120.448 344.942 122.4V120H352.19V144H344.942V141.6C343.342 143.552 341.166 144.528 338.414 144.528ZM336.062 136.272C337.086 137.392 338.414 137.952 340.046 137.952C341.678 137.952 342.99 137.392 343.982 136.272C345.006 135.152 345.518 133.728 345.518 132C345.518 130.272 345.006 128.848 343.982 127.728C342.99 126.608 341.678 126.048 340.046 126.048C338.414 126.048 337.086 126.608 336.062 127.728C335.07 128.848 334.574 130.272 334.574 132C334.574 133.728 335.07 135.152 336.062 136.272ZM96.4291 194V170H108.189C111.197 170 113.469 170.752 115.005 172.256C116.541 173.728 117.309 175.44 117.309 177.392C117.309 178.832 116.861 180.112 115.965 181.232C117.885 182.704 118.845 184.496 118.845 186.608C118.845 188.592 118.109 190.32 116.637 191.792C115.197 193.264 112.989 194 110.013 194H96.4291ZM103.677 188.144H109.485C110.093 188.144 110.605 187.968 111.021 187.616C111.437 187.232 111.645 186.72 111.645 186.08C111.645 185.44 111.437 184.944 111.021 184.592C110.605 184.24 110.093 184.064 109.485 184.064H103.677V188.144ZM103.677 179.312H108.045C109.421 179.312 110.109 178.672 110.109 177.392C110.109 176.112 109.421 175.472 108.045 175.472H103.677V179.312ZM123.242 194V170H146.282V194H139.034V176.288H130.49V194H123.242ZM163.49 194.528C159.778 194.528 156.722 193.344 154.322 190.976C151.954 188.608 150.77 185.6 150.77 181.952C150.77 178.368 151.97 175.392 154.37 173.024C156.802 170.656 159.842 169.472 163.49 169.472C165.25 169.472 166.898 169.776 168.434 170.384C170.002 170.992 171.378 171.872 172.562 173.024C173.778 174.176 174.722 175.664 175.394 177.488C176.066 179.312 176.37 181.376 176.306 183.68H157.826C157.954 184.992 158.53 186.096 159.554 186.992C160.578 187.856 162.018 188.288 163.874 188.288C164.93 188.288 165.89 188.08 166.754 187.664C167.618 187.216 168.194 186.672 168.482 186.032H176.066C175.298 188.56 173.762 190.608 171.458 192.176C169.154 193.744 166.498 194.528 163.49 194.528ZM163.298 175.232C161.922 175.232 160.77 175.584 159.842 176.288C158.946 176.992 158.338 177.92 158.018 179.072H168.29C167.938 177.76 167.282 176.8 166.322 176.192C165.394 175.552 164.386 175.232 163.298 175.232ZM202.164 194H194.916V184.688C194.404 185.328 193.556 185.872 192.372 186.32C191.22 186.768 189.908 186.992 188.436 186.992C185.812 186.992 183.652 186.192 181.956 184.592C180.292 182.992 179.46 180.592 179.46 177.392V170H186.708V176.528C186.708 179.28 187.988 180.656 190.548 180.656C191.764 180.656 192.788 180.256 193.62 179.456C194.484 178.656 194.916 177.408 194.916 175.712V170H202.164V194ZM217.828 194.528C214.724 194.528 212.084 193.296 209.908 190.832C207.764 188.368 206.692 185.424 206.692 182C206.692 178.576 207.764 175.632 209.908 173.168C212.084 170.704 214.724 169.472 217.828 169.472C220.58 169.472 222.756 170.448 224.356 172.4V170H231.604V194H224.356V191.6C222.756 193.552 220.58 194.528 217.828 194.528ZM215.476 186.272C216.5 187.392 217.828 187.952 219.46 187.952C221.092 187.952 222.404 187.392 223.396 186.272C224.42 185.152 224.932 183.728 224.932 182C224.932 180.272 224.42 178.848 223.396 177.728C222.404 176.608 221.092 176.048 219.46 176.048C217.828 176.048 216.5 176.608 215.476 177.728C214.484 178.848 213.988 180.272 213.988 182C213.988 183.728 214.484 185.152 215.476 186.272ZM241.842 194V176.288H235.458V170H255.954V176.288H249.09V194H241.842ZM259.772 194.528C258.3 194.528 257.18 194.448 256.412 194.288V188.144C257.116 188.208 257.676 188.24 258.092 188.24C259.116 188.24 259.868 187.952 260.348 187.376C260.828 186.8 261.068 185.744 261.068 184.208V170H282.14V194H274.892V176.288H268.316V184.976C268.316 188.144 267.484 190.528 265.82 192.128C264.156 193.728 262.14 194.528 259.772 194.528ZM299.381 194.528C295.669 194.528 292.613 193.344 290.213 190.976C287.845 188.608 286.661 185.6 286.661 181.952C286.661 178.368 287.861 175.392 290.261 173.024C292.693 170.656 295.733 169.472 299.381 169.472C301.141 169.472 302.789 169.776 304.325 170.384C305.893 170.992 307.269 171.872 308.453 173.024C309.669 174.176 310.613 175.664 311.285 177.488C311.957 179.312 312.261 181.376 312.197 183.68H293.717C293.845 184.992 294.421 186.096 295.445 186.992C296.469 187.856 297.909 188.288 299.765 188.288C300.821 188.288 301.781 188.08 302.645 187.664C303.509 187.216 304.085 186.672 304.373 186.032H311.957C311.189 188.56 309.653 190.608 307.349 192.176C305.045 193.744 302.389 194.528 299.381 194.528ZM299.189 175.232C297.813 175.232 296.661 175.584 295.733 176.288C294.837 176.992 294.229 177.92 293.909 179.072H304.181C303.829 177.76 303.173 176.8 302.213 176.192C301.285 175.552 300.277 175.232 299.189 175.232ZM316.695 194V170H323.943V178.832H332.967V170H340.215V194H332.967V185.12H323.943V194H316.695ZM352.659 194H346.179V170H353.427V183.248L363.411 170H369.891V194H362.691V180.8L352.659 194ZM382.331 194H375.851V170H383.099V183.248L393.083 170H399.563V194H392.363V180.8L382.331 194ZM394.235 165.152C392.603 166.72 390.571 167.504 388.139 167.504C385.707 167.504 383.675 166.72 382.043 165.152C380.411 163.552 379.595 161.488 379.595 158.96V158H384.203V158.96C384.203 160.368 384.571 161.456 385.307 162.224C386.043 162.992 386.987 163.376 388.139 163.376C389.291 163.376 390.235 162.992 390.971 162.224C391.707 161.456 392.075 160.368 392.075 158.96V158H396.683V158.96C396.683 161.488 395.867 163.552 394.235 165.152Z" fill="white"/>
<defs>
<linearGradient id="paint0_linear_775_4664" x1="239" y1="-610" x2="238.529" y2="699.648" gradientUnits="userSpaceOnUse">
<stop stop-color="white"/>
<stop offset="1" stop-color="#EEDE9D"/>
</linearGradient>
<linearGradient id="paint1_linear_775_4664" x1="287.67" y1="211.253" x2="287.829" y2="1024.05" gradientUnits="userSpaceOnUse">
<stop stop-color="#FE3360"/>
<stop offset="1" stop-color="white"/>
</linearGradient>
</defs>
</svg>
