<svg width="90" height="89" viewBox="0 0 90 89" fill="none" xmlns="http://www.w3.org/2000/svg">
<rect x="89.0569" width="88.5555" height="88.5555" rx="44.2778" transform="rotate(90 89.0569 0)" fill="white"/>
<path fill-rule="evenodd" clip-rule="evenodd" d="M43.1953 56.7309C43.1953 57.4951 43.8148 58.1146 44.579 58.1146C45.3432 58.1146 45.9627 57.4951 45.9627 56.7309L45.9627 37.1691C45.9627 36.4294 46.8569 36.059 47.3799 36.582L56.0538 45.2559C56.5942 45.7963 57.4703 45.7963 58.0106 45.2559C58.551 44.7155 58.551 43.8394 58.0106 43.2991L45.5574 30.8458C45.017 30.3055 44.1409 30.3055 43.6006 30.8458L31.1473 43.2991C30.6069 43.8394 30.6069 44.7155 31.1473 45.2559C31.6877 45.7963 32.5638 45.7963 33.1041 45.2559L41.7781 36.5819C42.3011 36.0589 43.1953 36.4294 43.1953 37.169L43.1953 56.7309Z" fill="#595959"/>
</svg>
